{
	"asset":
	{
		"version": "2.0",
		"generator": "Unreal Engine 5.7.4"
	},
	"scene": 0,
	"accessors": [
		{
			"bufferView": 0,
			"count": 12,
			"type": "SCALAR",
			"componentType": 5121
		},
		{
			"bufferView": 1,
			"count": 8,
			"type": "VEC3",
			"componentType": 5126,
			"min": [
				-0.149999991,
				-0.149999991,
				-0.129903793
			],
			"max": [
				0.149999991,
				0.149999991,
				0.129903793
			]
		},
		{
			"bufferView": 2,
			"count": 8,
			"type": "VEC3",
			"componentType": 5126
		},
		{
			"bufferView": 3,
			"count": 8,
			"type": "VEC4",
			"componentType": 5126
		},
		{
			"bufferView": 4,
			"count": 8,
			"type": "VEC2",
			"componentType": 5126
		},
		{
			"bufferView": 5,
			"count": 8,
			"type": "VEC2",
			"componentType": 5126
		}
	],
	"buffers": [
		{
			"uri": "InstancedFoliageActor_-1_-1_0.bin",
			"byteLength": 460
		}
	],
	"bufferViews": [
		{
			"buffer": 0,
			"byteLength": 12,
			"target": 34963
		},
		{
			"buffer": 0,
			"byteLength": 96,
			"byteOffset": 12,
			"target": 34962
		},
		{
			"buffer": 0,
			"byteLength": 96,
			"byteOffset": 108,
			"target": 34962
		},
		{
			"buffer": 0,
			"byteLength": 128,
			"byteOffset": 204,
			"target": 34962
		},
		{
			"buffer": 0,
			"byteLength": 64,
			"byteOffset": 332,
			"target": 34962
		},
		{
			"buffer": 0,
			"byteLength": 64,
			"byteOffset": 396,
			"target": 34962
		}
	],
	"images": [
		{
			"uri": "grass.png"
		}
	],
	"materials": [
		{
			"name": "M_Grass",
			"pbrMetallicRoughness":
			{
				"baseColorTexture":
				{
					"index": 0
				},
				"metallicFactor": 0,
				"roughnessFactor": 0.5
			},
			"alphaMode": "MASK",
			"alphaCutoff": 0.333299994,
			"doubleSided": true
		}
	],
	"meshes": [
		{
			"name": "GrassClump",
			"primitives": [
				{
					"attributes":
					{
						"POSITION": 1,
						"NORMAL": 2,
						"TANGENT": 3,
						"TEXCOORD_0": 4,
						"TEXCOORD_1": 5
					},
					"indices": 0,
					"material": 0
				}
			]
		}
	],
	"nodes": [
		{
			"name": "InstancedFoliageActor_-1_-1_0",
			"translation": [
				-128,
				128,
				-128
			],
			"children": [
				1
			]
		},
		{
			"name": "FoliageInstancedStaticMeshComponent_0",
			"children": [
				2,
				3,
				4,
				5,
				6,
				7,
				8,
				9,
				10,
				11,
				12,
				13,
				14,
				15,
				16,
				17,
				18,
				19,
				20,
				21,
				22,
				23,
				24,
				25,
				26,
				27,
				28,
				29,
				30,
				31,
				32,
				33,
				34,
				35,
				36,
				37,
				38,
				39,
				40,
				41,
				42,
				43,
				44,
				45,
				46,
				47,
				48,
				49,
				50,
				51,
				52,
				53,
				54,
				55,
				56,
				57,
				58,
				59,
				60,
				61,
				62,
				63,
				64,
				65,
				66,
				67,
				68,
				69,
				70,
				71,
				72,
				73,
				74,
				75,
				76,
				77,
				78,
				79,
				80,
				81,
				82,
				83,
				84,
				85,
				86,
				87,
				88,
				89,
				90,
				91,
				92,
				93,
				94,
				95,
				96,
				97,
				98,
				99,
				100,
				101,
				102,
				103,
				104,
				105,
				106,
				107,
				108,
				109,
				110,
				111,
				112,
				113,
				114,
				115,
				116,
				117,
				118,
				119,
				120,
				121,
				122,
				123,
				124,
				125,
				126,
				127,
				128,
				129,
				130,
				131,
				132,
				133,
				134,
				135,
				136,
				137,
				138,
				139,
				140,
				141,
				142,
				143,
				144,
				145,
				146,
				147,
				148,
				149,
				150,
				151,
				152,
				153,
				154,
				155,
				156,
				157,
				158,
				159,
				160,
				161,
				162,
				163,
				164,
				165,
				166,
				167,
				168,
				169,
				170,
				171,
				172,
				173,
				174,
				175,
				176,
				177,
				178,
				179,
				180,
				181,
				182,
				183,
				184,
				185,
				186,
				187,
				188,
				189,
				190,
				191,
				192,
				193,
				194,
				195,
				196,
				197,
				198,
				199,
				200,
				201,
				202,
				203,
				204,
				205,
				206,
				207,
				208,
				209,
				210,
				211,
				212,
				213,
				214,
				215,
				216,
				217,
				218,
				219,
				220,
				221,
				222,
				223,
				224,
				225,
				226,
				227,
				228,
				229,
				230,
				231,
				232,
				233,
				234,
				235,
				236,
				237,
				238,
				239,
				240,
				241,
				242,
				243,
				244,
				245,
				246,
				247,
				248,
				249,
				250,
				251,
				252,
				253,
				254,
				255,
				256,
				257,
				258,
				259,
				260,
				261,
				262,
				263,
				264,
				265,
				266,
				267,
				268,
				269,
				270,
				271,
				272,
				273,
				274,
				275,
				276,
				277,
				278,
				279,
				280,
				281,
				282,
				283,
				284,
				285,
				286,
				287,
				288,
				289,
				290,
				291,
				292,
				293,
				294,
				295,
				296,
				297,
				298,
				299,
				300,
				301,
				302,
				303,
				304,
				305,
				306,
				307,
				308,
				309,
				310,
				311,
				312,
				313,
				314,
				315,
				316,
				317,
				318,
				319,
				320,
				321,
				322,
				323,
				324,
				325,
				326,
				327
			]
		},
		{
			"name": "FoliageInstancedStaticMeshComponent_0:0",
			"translation": [
				127.026573,
				-127.741402,
				118.348091
			],
			"rotation": [
				2.77154868e-08,
				-0.00249473401,
				-9.09851252e-08,
				0.999996901
			],
			"mesh": 0
		},
		{
			"name": "FoliageInstancedStaticMeshComponent_0:1",
			"translation": [
				127.265778,
				-127.719994,
				126.879852
			],
			"rotation": [
				-0,
				0.277975351,
				-0,
				0.960588217
			],
			"mesh": 0
		},
		{
			"name": "FoliageInstancedStaticMeshComponent_0:2",
			"translation": [
				127.349236,
				-127.719994,
				126.235069
			],
			"rotation": [
				-0,
				0.213678822,
				-0,
				0.976903975
			],
			"mesh": 0
		},
		{
			"name": "FoliageInstancedStaticMeshComponent_0:3",
			"translation": [
				127.869423,
				-127.741402,
				125.841919
			],
			"rotation": [
				-8.56678426e-08,
				-0.988584578,
				-4.13214636e-08,
				0.150667623
			],
			"mesh": 0
		},
		{
			"name": "FoliageInstancedStaticMeshComponent_0:4",
			"translation": [
				127.880775,
				-127.741402,
				123.429802
			],
			"rotation": [
				-9.41958049e-08,
				-0.905961096,
				1.3175443e-08,
				-0.423360944
			],
			"mesh": 0
		},
		{
			"name": "FoliageInstancedStaticMeshComponent_0:5",
			"translation": [
				127.692207,
				-127.741402,
				123.024635
			],
			"rotation": [
				6.99733249e-09,
				-0.22266309,
				-9.48550394e-08,
				0.974895477
			],
			"mesh": 0
		},
		{
			"name": "FoliageInstancedStaticMeshComponent_0:6",
			"translation": [
				127.813614,
				-127.741402,
				122.2873
			],
			"rotation": [
				-9.99410066e-09,
				-0.392594814,
				-9.45862553e-08,
				0.91971153
			],
			"mesh": 0
		},
		{
			"name": "FoliageInstancedStaticMeshComponent_0:7",
			"translation": [
				127.926025,
				-127.741402,
				118.370934
			],
			"rotation": [
				-7.44869766e-08,
				-0.931271017,
				-5.91450231e-08,
				0.364327461
			],
			"mesh": 0
		},
		{
			"name": "FoliageInstancedStaticMeshComponent_0:8",
			"translation": [
				127.707077,
				-127.741402,
				120.952843
			],
			"rotation": [
				-2.58952664e-08,
				-0.542928219,
				-9.15198157e-08,
				0.839779139
			],
			"mesh": 0
		},
		{
			"name": "FoliageInstancedStaticMeshComponent_0:9",
			"translation": [
				127.888222,
				-127.741402,
				120.351616
			],
			"rotation": [
				-9.41677527e-08,
				-0.9876858,
				-1.3374474e-08,
				-0.156450659
			],
			"mesh": 0
		},
		{
			"name": "FoliageInstancedStaticMeshComponent_0:10",
			"translation": [
				127.191414,
				-127.741402,
				122.088768
			],
			"rotation": [
				-8.49952713e-08,
				-0.98604548,
				-4.26877698e-08,
				0.166476309
			],
			"mesh": 0
		},
		{
			"name": "FoliageInstancedStaticMeshComponent_0:11",
			"translation": [
				126.333252,
				-127.741402,
				121.883484
			],
			"rotation": [
				7.14170483e-08,
				0.523704112,
				-6.28175627e-08,
				0.85190022
			],
			"mesh": 0
		},
		{
			"name": "FoliageInstancedStaticMeshComponent_0:12",
			"translation": [
				126.520828,
				-127.741402,
				121.212547
			],
			"rotation": [
				-8.54967581e-08,
				-0.987954915,
				-4.16742907e-08,
				0.154741973
			],
			"mesh": 0
		},
		{
			"name": "FoliageInstancedStaticMeshComponent_0:13",
			"translation": [
				126.258476,
				-127.741402,
				120.790466
			],
			"rotation": [
				7.23900087e-08,
				0.536953151,
				-6.16938465e-08,
				0.843612194
			],
			"mesh": 0
		},
		{
			"name": "FoliageInstancedStaticMeshComponent_0:14",
			"translation": [
				126.645996,
				-127.741402,
				120.18222
			],
			"rotation": [
				4.59990481e-08,
				0.205145568,
				-8.32498088e-08,
				0.978731573
			],
			"mesh": 0
		},
		{
			"name": "FoliageInstancedStaticMeshComponent_0:15",
			"translation": [
				127.058388,
				-127.741402,
				120.265831
			],
			"rotation": [
				2.203066e-08,
				-0.0643865019,
				-9.25261645e-08,
				0.997925043
			],
			"mesh": 0
		},
		{
			"name": "FoliageInstancedStaticMeshComponent_0:16",
			"translation": [
				127.280533,
				-127.741402,
				119.602371
			],
			"rotation": [
				3.56492369e-09,
				-0.257748067,
				-9.5045948e-08,
				0.966212153
			],
			"mesh": 0
		},
		{
			"name": "FoliageInstancedStaticMeshComponent_0:17",
			"translation": [
				127.89814,
				-127.741402,
				118.713242
			],
			"rotation": [
				-9.31996738e-08,
				-0.878019333,
				1.89805931e-08,
				-0.478625208
			],
			"mesh": 0
		},
		{
			"name": "FoliageInstancedStaticMeshComponent_0:18",
			"translation": [
				127.907997,
				-127.741402,
				117.779694
			],
			"rotation": [
				2.05464215e-08,
				-0.0803558007,
				-9.28670332e-08,
				0.996766269
			],
			"mesh": 0
		},
		{
			"name": "FoliageInstancedStaticMeshComponent_0:19",
			"translation": [
				127.422058,
				-127.741402,
				117.975182
			],
			"rotation": [
				8.4913431e-08,
				0.721015453,
				-4.28503242e-08,
				0.692919016
			],
			"mesh": 0
		},
		{
			"name": "FoliageInstancedStaticMeshComponent_0:20",
			"translation": [
				126.467583,
				-127.741402,
				121.02195
			],
			"rotation": [
				7.37923944e-09,
				-0.218735561,
				-9.48260919e-08,
				0.975784183
			],
			"mesh": 0
		},
		{
			"name": "FoliageInstancedStaticMeshComponent_0:21",
			"translation": [
				125.53273,
				-127.741402,
				120.314644
			],
			"rotation": [
				-7.39853121e-08,
				-0.928163886,
				-5.97713594e-08,
				0.37217167
			],
			"mesh": 0
		},
		{
			"name": "FoliageInstancedStaticMeshComponent_0:22",
			"translation": [
				125.316826,
				-127.741402,
				120.994499
			],
			"rotation": [
				-2.9757901e-08,
				-0.578096092,
				-9.03377497e-08,
				0.815968692
			],
			"mesh": 0
		},
		{
			"name": "FoliageInstancedStaticMeshComponent_0:23",
			"translation": [
				126.270157,
				-127.741402,
				118.922302
			],
			"rotation": [
				8.03629163e-08,
				0.650497496,
				-5.08747853e-08,
				0.759508371
			],
			"mesh": 0
		},
		{
			"name": "FoliageInstancedStaticMeshComponent_0:24",
			"translation": [
				127.555229,
				-127.741402,
				117.986176
			],
			"rotation": [
				-4.18500967e-08,
				-0.684403181,
				-8.54108393e-08,
				0.729103744
			],
			"mesh": 0
		},
		{
			"name": "FoliageInstancedStaticMeshComponent_0:25",
			"translation": [
				127.415329,
				-127.741402,
				117.655975
			],
			"rotation": [
				8.7377714e-08,
				0.762088001,
				-3.75709455e-08,
				0.647473454
			],
			"mesh": 0
		},
		{
			"name": "FoliageInstancedStaticMeshComponent_0:26",
			"translation": [
				126.777435,
				-127.741402,
				117.311157
			],
			"rotation": [
				-1.35851108e-09,
				-0.307404518,
				-9.5103097e-08,
				0.951579034
			],
			"mesh": 0
		},
		{
			"name": "FoliageInstancedStaticMeshComponent_0:27",
			"translation": [
				125.88562,
				-127.741402,
				117.660957
			],
			"rotation": [
				-8.87243132e-08,
				-0.997521579,
				-3.4270073e-08,
				0.0703612342
			],
			"mesh": 0
		},
		{
			"name": "FoliageInstancedStaticMeshComponent_0:28",
			"translation": [
				125.918114,
				-127.741402,
				118.344559
			],
			"rotation": [
				5.15551548e-08,
				0.271243691,
				-7.99281423e-08,
				0.962510705
			],
			"mesh": 0
		},
		{
			"name": "FoliageInstancedStaticMeshComponent_0:29",
			"translation": [
				125.092293,
				-127.741402,
				120.186775
			],
			"rotation": [
				-9.4098624e-08,
				-0.902893424,
				1.38524401e-08,
				-0.429864526
			],
			"mesh": 0
		},
		{
			"name": "FoliageInstancedStaticMeshComponent_0:30",
			"translation": [
				125.036888,
				-127.741402,
				120.523285
			],
			"rotation": [
				7.97375179e-08,
				0.641201615,
				-5.18495149e-08,
				0.767372608
			],
			"mesh": 0
		},
		{
			"name": "FoliageInstancedStaticMeshComponent_0:31",
			"translation": [
				125.139488,
				-127.741402,
				121.007965
			],
			"rotation": [
				-2.11777387e-08,
				-0.499240488,
				-9.27251165e-08,
				0.866463602
			],
			"mesh": 0
		},
		{
			"name": "FoliageInstancedStaticMeshComponent_0:32",
			"translation": [
				125.049675,
				-127.741402,
				122.191353
			],
			"rotation": [
				-3.85445666e-08,
				-0.655945182,
				-8.69526176e-08,
				0.754808545
			],
			"mesh": 0
		},
		{
			"name": "FoliageInstancedStaticMeshComponent_0:33",
			"translation": [
				123.385849,
				-127.741402,
				122.164452
			],
			"rotation": [
				5.90557114e-08,
				0.363211185,
				-7.45577964e-08,
				0.931706846
			],
			"mesh": 0
		},
		{
			"name": "FoliageInstancedStaticMeshComponent_0:34",
			"translation": [
				123.578201,
				-127.741402,
				121.40239
			],
			"rotation": [
				2.78288645e-08,
				-0.00124837691,
				-9.09505147e-08,
				0.999999225
			],
			"mesh": 0
		},
		{
			"name": "FoliageInstancedStaticMeshComponent_0:35",
			"translation": [
				123.187759,
				-127.741402,
				121.578964
			],
			"rotation": [
				-9.49639727e-08,
				-0.970804393,
				-5.31841504e-09,
				-0.239872485
			],
			"mesh": 0
		},
		{
			"name": "FoliageInstancedStaticMeshComponent_0:36",
			"translation": [
				124.099136,
				-127.741402,
				121.692497
			],
			"rotation": [
				-9.29286657e-08,
				-0.996519029,
				-2.02658548e-08,
				-0.0833658203
			],
			"mesh": 0
		},
		{
			"name": "FoliageInstancedStaticMeshComponent_0:37",
			"translation": [
				118.89325,
				-127.741402,
				108.636238
			],
			"rotation": [
				7.75749953e-08,
				0.60963738,
				-5.50323875e-08,
				0.792680562
			],
			"mesh": 0
		},
		{
			"name": "FoliageInstancedStaticMeshComponent_0:38",
			"translation": [
				122.991631,
				-127.741402,
				127.771576
			],
			"rotation": [
				1.2430343e-08,
				-0.166338354,
				-9.42970217e-08,
				0.986068726
			],
			"mesh": 0
		},
		{
			"name": "FoliageInstancedStaticMeshComponent_0:39",
			"translation": [
				119.309334,
				-127.741402,
				106.91861
			],
			"rotation": [
				-9.31631163e-08,
				-0.877099991,
				1.91592804e-08,
				-0.480308086
			],
			"mesh": 0
		},
		{
			"name": "FoliageInstancedStaticMeshComponent_0:40",
			"translation": [
				118.895775,
				-127.741402,
				107.34082
			],
			"rotation": [
				-7.88788324e-09,
				-0.372041911,
				-9.47851433e-08,
				0.928215921
			],
			"mesh": 0
		},
		{
			"name": "FoliageInstancedStaticMeshComponent_0:41",
			"translation": [
				119.709587,
				-127.741402,
				107.089813
			],
			"rotation": [
				8.94150745e-08,
				0.798457623,
				-3.24250777e-08,
				0.60205102
			],
			"mesh": 0
		},
		{
			"name": "FoliageInstancedStaticMeshComponent_0:42",
			"translation": [
				119.703331,
				-127.741402,
				107.166595
			],
			"rotation": [
				7.167543e-08,
				0.527211905,
				-6.2522588e-08,
				0.849733829
			],
			"mesh": 0
		},
		{
			"name": "FoliageInstancedStaticMeshComponent_0:43",
			"translation": [
				119.749458,
				-127.741402,
				107.730888
			],
			"rotation": [
				-1.78757347e-08,
				-0.468195498,
				-9.34178743e-08,
				0.883624911
			],
			"mesh": 0
		},
		{
			"name": "FoliageInstancedStaticMeshComponent_0:44",
			"translation": [
				119.957245,
				-127.741402,
				107.48864
			],
			"rotation": [
				-5.10864879e-08,
				-0.761220813,
				-8.0228503e-08,
				0.648492813
			],
			"mesh": 0
		},
		{
			"name": "FoliageInstancedStaticMeshComponent_0:45",
			"translation": [
				120.778824,
				-127.741402,
				107.82962
			],
			"rotation": [
				6.11615221e-08,
				0.389679313,
				-7.28403009e-08,
				0.920950592
			],
			"mesh": 0
		},
		{
			"name": "FoliageInstancedStaticMeshComponent_0:46",
			"translation": [
				122.626373,
				-127.741402,
				127.951981
			],
			"rotation": [
				-8.93682213e-08,
				-0.998692214,
				-3.25539951e-08,
				0.0511259511
			],
			"mesh": 0
		},
		{
			"name": "FoliageInstancedStaticMeshComponent_0:47",
			"translation": [
				120.087753,
				-127.741402,
				108.322426
			],
			"rotation": [
				-6.87872159e-09,
				-0.362142652,
				-9.48637151e-08,
				0.932122707
			],
			"mesh": 0
		},
		{
			"name": "FoliageInstancedStaticMeshComponent_0:48",
			"translation": [
				120.36821,
				-127.741402,
				108.611641
			],
			"rotation": [
				-2.21633272e-08,
				-0.508433163,
				-9.24944814e-08,
				0.861101449
			],
			"mesh": 0
		},
		{
			"name": "FoliageInstancedStaticMeshComponent_0:49",
			"translation": [
				120.695992,
				-127.741402,
				109.08754
			],
			"rotation": [
				5.93483271e-08,
				0.366870761,
				-7.43250794e-08,
				0.930271924
			],
			"mesh": 0
		},
		{
			"name": "FoliageInstancedStaticMeshComponent_0:50",
			"translation": [
				121.188744,
				-127.741402,
				109.427994
			],
			"rotation": [
				3.36354589e-08,
				0.0632343367,
				-8.89668357e-08,
				0.997998714
			],
			"mesh": 0
		},
		{
			"name": "FoliageInstancedStaticMeshComponent_0:51",
			"translation": [
				120.545769,
				-127.741402,
				110.476151
			],
			"rotation": [
				1.18243504e-08,
				-0.172669142,
				-9.43749257e-08,
				0.984979868
			],
			"mesh": 0
		},
		{
			"name": "FoliageInstancedStaticMeshComponent_0:52",
			"translation": [
				120.247208,
				-127.741402,
				110.665955
			],
			"rotation": [
				-5.95615717e-08,
				-0.827632606,
				-7.41543005e-08,
				0.561270237
			],
			"mesh": 0
		},
		{
			"name": "FoliageInstancedStaticMeshComponent_0:53",
			"translation": [
				119.568016,
				-127.741402,
				110.418877
			],
			"rotation": [
				-9.30776949e-08,
				-0.874973059,
				1.95699723e-08,
				-0.484171629
			],
			"mesh": 0
		},
		{
			"name": "FoliageInstancedStaticMeshComponent_0:54",
			"translation": [
				120.236908,
				-127.741402,
				110.043991
			],
			"rotation": [
				3.27210152e-08,
				0.0529929549,
				-8.9307207e-08,
				0.99859488
			],
			"mesh": 0
		},
		{
			"name": "FoliageInstancedStaticMeshComponent_0:55",
			"translation": [
				119.715103,
				-127.741402,
				109.527725
			],
			"rotation": [
				6.93879159e-08,
				0.496409953,
				-6.50519851e-08,
				0.868088365
			],
			"mesh": 0
		},
		{
			"name": "FoliageInstancedStaticMeshComponent_0:56",
			"translation": [
				119.493614,
				-127.741402,
				108.945038
			],
			"rotation": [
				7.19623969e-08,
				0.531116724,
				-6.21920861e-08,
				0.847298682
			],
			"mesh": 0
		},
		{
			"name": "FoliageInstancedStaticMeshComponent_0:57",
			"translation": [
				117.930748,
				-127.741402,
				109.171364
			],
			"rotation": [
				-9.37006632e-08,
				-0.99211663,
				-1.63287162e-08,
				-0.12531814
			],
			"mesh": 0
		},
		{
			"name": "FoliageInstancedStaticMeshComponent_0:58",
			"translation": [
				118.517937,
				-127.741402,
				109.462051
			],
			"rotation": [
				-9.50618002e-08,
				-0.964978039,
				-3.11380255e-09,
				-0.262330741
			],
			"mesh": 0
		},
		{
			"name": "FoliageInstancedStaticMeshComponent_0:59",
			"translation": [
				117.832115,
				-127.741402,
				109.024376
			],
			"rotation": [
				-3.98738536e-08,
				-0.667446494,
				-8.63511289e-08,
				0.744657755
			],
			"mesh": 0
		},
		{
			"name": "FoliageInstancedStaticMeshComponent_0:60",
			"translation": [
				117.217087,
				-127.741402,
				109.307602
			],
			"rotation": [
				-9.19797145e-08,
				-0.999167919,
				-2.42110278e-08,
				-0.040786203
			],
			"mesh": 0
		},
		{
			"name": "FoliageInstancedStaticMeshComponent_0:61",
			"translation": [
				116.573647,
				-127.741402,
				109.384041
			],
			"rotation": [
				-2.93765439e-08,
				-0.574648738,
				-9.04624784e-08,
				0.818400145
			],
			"mesh": 0
		},
		{
			"name": "FoliageInstancedStaticMeshComponent_0:62",
			"translation": [
				116.4963,
				-127.741402,
				109.400047
			],
			"rotation": [
				-7.72409479e-08,
				-0.947690248,
				-5.5500248e-08,
				0.319191545
			],
			"mesh": 0
		},
		{
			"name": "FoliageInstancedStaticMeshComponent_0:63",
			"translation": [
				116.628143,
				-127.741402,
				109.639229
			],
			"rotation": [
				-9.46945633e-08,
				-0.924149215,
				8.90977425e-09,
				-0.382032007
			],
			"mesh": 0
		},
		{
			"name": "FoliageInstancedStaticMeshComponent_0:64",
			"translation": [
				117.007576,
				-127.741402,
				109.642372
			],
			"rotation": [
				4.47005029e-08,
				0.189919665,
				-8.39541912e-08,
				0.981799662
			],
			"mesh": 0
		},
		{
			"name": "FoliageInstancedStaticMeshComponent_0:65",
			"translation": [
				117.26104,
				-127.741402,
				109.408699
			],
			"rotation": [
				2.62814837e-08,
				-0.0182175636,
				-9.14096532e-08,
				0.999834061
			],
			"mesh": 0
		},
		{
			"name": "FoliageInstancedStaticMeshComponent_0:66",
			"translation": [
				116.685692,
				-127.741402,
				108.756012
			],
			"rotation": [
				-9.42108613e-08,
				-0.987170637,
				-1.30674334e-08,
				-0.159669533
			],
			"mesh": 0
		},
		{
			"name": "FoliageInstancedStaticMeshComponent_0:67",
			"translation": [
				116.924583,
				-127.741402,
				108.66066
			],
			"rotation": [
				6.91629509e-08,
				0.493410528,
				-6.5291097e-08,
				0.869796574
			],
			"mesh": 0
		},
		{
			"name": "FoliageInstancedStaticMeshComponent_0:68",
			"translation": [
				117.474998,
				-127.741402,
				109.059486
			],
			"rotation": [
				-8.65581455e-08,
				-0.991666317,
				-3.94224493e-08,
				0.128832847
			],
			"mesh": 0
		},
		{
			"name": "FoliageInstancedStaticMeshComponent_0:69",
			"translation": [
				117.463989,
				-127.741402,
				108.697342
			],
			"rotation": [
				-7.8285737e-08,
				-0.95360738,
				-5.4016521e-08,
				0.301053166
			],
			"mesh": 0
		},
		{
			"name": "FoliageInstancedStaticMeshComponent_0:70",
			"translation": [
				118.195801,
				-127.741402,
				107.86821
			],
			"rotation": [
				-9.22588299e-08,
				-0.99861747,
				-2.31246631e-08,
				-0.0525661558
			],
			"mesh": 0
		},
		{
			"name": "FoliageInstancedStaticMeshComponent_0:71",
			"translation": [
				118.594246,
				-127.741402,
				107.592819
			],
			"rotation": [
				-3.14931867e-08,
				-0.593712509,
				-8.97475374e-08,
				0.804677248
			],
			"mesh": 0
		},
		{
			"name": "FoliageInstancedStaticMeshComponent_0:72",
			"translation": [
				118.608467,
				-127.741402,
				107.569481
			],
			"rotation": [
				-9.13451288e-08,
				-0.999875605,
				-2.65048943e-08,
				-0.0157730039
			],
			"mesh": 0
		},
		{
			"name": "FoliageInstancedStaticMeshComponent_0:73",
			"translation": [
				118.504585,
				-127.741402,
				107.789375
			],
			"rotation": [
				4.08485583e-08,
				0.145215407,
				-8.58943352e-08,
				0.989400089
			],
			"mesh": 0
		},
		{
			"name": "FoliageInstancedStaticMeshComponent_0:74",
			"translation": [
				114.777496,
				-127.741402,
				116.518936
			],
			"rotation": [
				-8.00194613e-08,
				-0.962990344,
				-5.14132985e-08,
				0.269535989
			],
			"mesh": 0
		},
		{
			"name": "FoliageInstancedStaticMeshComponent_0:75",
			"translation": [
				114.200424,
				-127.741402,
				116.274864
			],
			"rotation": [
				7.96095989e-09,
				-0.212743968,
				-9.47790326e-08,
				0.977108002
			],
			"mesh": 0
		},
		{
			"name": "FoliageInstancedStaticMeshComponent_0:76",
			"translation": [
				114.880928,
				-127.741402,
				116.697342
			],
			"rotation": [
				5.28964925e-08,
				0.287446052,
				-7.90468491e-08,
				0.957796931
			],
			"mesh": 0
		},
		{
			"name": "FoliageInstancedStaticMeshComponent_0:77",
			"translation": [
				114.546227,
				-127.741402,
				116.637047
			],
			"rotation": [
				8.30796267e-08,
				0.691913068,
				-4.63056899e-08,
				0.72198081
			],
			"mesh": 0
		},
		{
			"name": "FoliageInstancedStaticMeshComponent_0:78",
			"translation": [
				115.378815,
				-127.741402,
				116.848579
			],
			"rotation": [
				1.30358213e-08,
				-0.160000727,
				-9.42152241e-08,
				0.987116873
			],
			"mesh": 0
		},
		{
			"name": "FoliageInstancedStaticMeshComponent_0:79",
			"translation": [
				116.576157,
				-127.741402,
				118.183632
			],
			"rotation": [
				-2.31110295e-08,
				-0.517240107,
				-9.22622476e-08,
				0.855840325
			],
			"mesh": 0
		},
		{
			"name": "FoliageInstancedStaticMeshComponent_0:80",
			"translation": [
				112.235916,
				-127.741402,
				123.758286
			],
			"rotation": [
				4.6747445e-08,
				0.213957816,
				-8.28318676e-08,
				0.97684288
			],
			"mesh": 0
		},
		{
			"name": "FoliageInstancedStaticMeshComponent_0:81",
			"translation": [
				115.630974,
				-127.741402,
				117.695633
			],
			"rotation": [
				3.98493505e-08,
				0.133727625,
				-8.63624479e-08,
				0.991018236
			],
			"mesh": 0
		},
		{
			"name": "FoliageInstancedStaticMeshComponent_0:82",
			"translation": [
				111.425819,
				-127.741402,
				123.622078
			],
			"rotation": [
				-9.45506571e-08,
				-0.982116163,
				-1.0325425e-08,
				-0.188275978
			],
			"mesh": 0
		},
		{
			"name": "FoliageInstancedStaticMeshComponent_0:83",
			"translation": [
				114.283363,
				-127.741402,
				117.081558
			],
			"rotation": [
				8.70979662e-08,
				0.757287264,
				-3.82149885e-08,
				0.653081894
			],
			"mesh": 0
		},
		{
			"name": "FoliageInstancedStaticMeshComponent_0:84",
			"translation": [
				111.331825,
				-127.741402,
				123.134529
			],
			"rotation": [
				-2.57723993e-08,
				-0.541800499,
				-9.15544902e-08,
				0.84050715
			],
			"mesh": 0
		},
		{
			"name": "FoliageInstancedStaticMeshComponent_0:85",
			"translation": [
				113.564728,
				-127.741402,
				116.201752
			],
			"rotation": [
				-9.14134333e-08,
				-0.999831438,
				-2.62683386e-08,
				-0.0183613505
			],
			"mesh": 0
		},
		{
			"name": "FoliageInstancedStaticMeshComponent_0:86",
			"translation": [
				112.672569,
				-127.741402,
				125.064056
			],
			"rotation": [
				-8.99018247e-08,
				-0.999409437,
				-3.10500212e-08,
				0.0343630388
			],
			"mesh": 0
		},
		{
			"name": "FoliageInstancedStaticMeshComponent_0:87",
			"translation": [
				112.096939,
				-127.741402,
				124.63356
			],
			"rotation": [
				-7.42823829e-08,
				-0.930007875,
				-5.940176e-08,
				0.367539644
			],
			"mesh": 0
		},
		{
			"name": "FoliageInstancedStaticMeshComponent_0:88",
			"translation": [
				121.588562,
				-127.741402,
				127.894691
			],
			"rotation": [
				5.95547469e-08,
				0.369455814,
				-7.41597859e-08,
				0.929248333
			],
			"mesh": 0
		},
		{
			"name": "FoliageInstancedStaticMeshComponent_0:89",
			"translation": [
				112.532104,
				-127.741402,
				124.407661
			],
			"rotation": [
				2.56761883e-08,
				-0.0248315781,
				-9.15815193e-08,
				0.999691665
			],
			"mesh": 0
		},
		{
			"name": "FoliageInstancedStaticMeshComponent_0:90",
			"translation": [
				121.904503,
				-127.741402,
				127.638084
			],
			"rotation": [
				3.65929935e-08,
				0.0965867639,
				-8.77917685e-08,
				0.995324552
			],
			"mesh": 0
		},
		{
			"name": "FoliageInstancedStaticMeshComponent_0:91",
			"translation": [
				112.462318,
				-127.741402,
				124.280968
			],
			"rotation": [
				3.6306627e-08,
				0.0933417901,
				-8.79105855e-08,
				0.995634139
			],
			"mesh": 0
		},
		{
			"name": "FoliageInstancedStaticMeshComponent_0:92",
			"translation": [
				111.902069,
				-127.741402,
				124.049316
			],
			"rotation": [
				4.43701502e-08,
				0.186058939,
				-8.41292618e-08,
				0.9825387
			],
			"mesh": 0
		},
		{
			"name": "FoliageInstancedStaticMeshComponent_0:93",
			"translation": [
				112.648109,
				-127.741402,
				124.507164
			],
			"rotation": [
				-9.24248766e-08,
				-0.998207927,
				-2.24517951e-08,
				-0.0598412976
			],
			"mesh": 0
		},
		{
			"name": "FoliageInstancedStaticMeshComponent_0:94",
			"translation": [
				113.713219,
				-127.741402,
				125.024666
			],
			"rotation": [
				-3.01300815e-08,
				-0.581455171,
				-9.02143e-08,
				0.813578427
			],
			"mesh": 0
		},
		{
			"name": "FoliageInstancedStaticMeshComponent_0:95",
			"translation": [
				112.576576,
				-127.741402,
				124.397026
			],
			"rotation": [
				-7.74247066e-09,
				-0.370617539,
				-9.47971301e-08,
				0.928785563
			],
			"mesh": 0
		},
		{
			"name": "FoliageInstancedStaticMeshComponent_0:96",
			"translation": [
				123.416763,
				-127.741402,
				94.90522
			],
			"rotation": [
				-9.44980201e-08,
				-0.983042717,
				-1.07966844e-08,
				-0.183377266
			],
			"mesh": 0
		},
		{
			"name": "FoliageInstancedStaticMeshComponent_0:97",
			"translation": [
				123.633842,
				-127.741402,
				94.9108047
			],
			"rotation": [
				-9.05227253e-08,
				-0.999905407,
				-2.91903621e-08,
				0.0137558384
			],
			"mesh": 0
		},
		{
			"name": "FoliageInstancedStaticMeshComponent_0:98",
			"translation": [
				124.425293,
				-127.741402,
				95.0252838
			],
			"rotation": [
				-6.97235052e-08,
				-0.900532484,
				-6.46921521e-08,
				0.434788764
			],
			"mesh": 0
		},
		{
			"name": "FoliageInstancedStaticMeshComponent_0:99",
			"translation": [
				124.332642,
				-127.741402,
				95.3784561
			],
			"rotation": [
				3.12869446e-08,
				0.036997892,
				-8.98196575e-08,
				0.999315441
			],
			"mesh": 0
		},
		{
			"name": "FoliageInstancedStaticMeshComponent_0:100",
			"translation": [
				124.963913,
				-127.741402,
				96.0780182
			],
			"rotation": [
				6.23956637e-08,
				0.405338854,
				-7.17859692e-08,
				0.914166629
			],
			"mesh": 0
		},
		{
			"name": "FoliageInstancedStaticMeshComponent_0:101",
			"translation": [
				124.962616,
				-127.741402,
				96.2746201
			],
			"rotation": [
				-8.59432348e-08,
				-0.989573419,
				-4.07455794e-08,
				0.144029453
			],
			"mesh": 0
		},
		{
			"name": "FoliageInstancedStaticMeshComponent_0:102",
			"translation": [
				125.481079,
				-127.741402,
				96.0922699
			],
			"rotation": [
				5.95903096e-08,
				0.369901448,
				-7.41312149e-08,
				0.929071009
			],
			"mesh": 0
		},
		{
			"name": "FoliageInstancedStaticMeshComponent_0:103",
			"translation": [
				126.142029,
				-127.741402,
				96.073555
			],
			"rotation": [
				-9.43189207e-08,
				-0.985772133,
				-1.22630608e-08,
				-0.16808717
			],
			"mesh": 0
		},
		{
			"name": "FoliageInstancedStaticMeshComponent_0:104",
			"translation": [
				125.831589,
				-127.741402,
				96.4537506
			],
			"rotation": [
				-7.92818966e-08,
				-0.959068954,
				-5.25435446e-08,
				0.283172965
			],
			"mesh": 0
		},
		{
			"name": "FoliageInstancedStaticMeshComponent_0:105",
			"translation": [
				126.20166,
				-127.741402,
				96.4092865
			],
			"rotation": [
				-9.50569117e-08,
				-0.965379357,
				-3.25963434e-09,
				-0.260850042
			],
			"mesh": 0
		},
		{
			"name": "FoliageInstancedStaticMeshComponent_0:106",
			"translation": [
				126.230278,
				-127.741402,
				96.4606705
			],
			"rotation": [
				-1.73918409e-08,
				-0.463614404,
				-9.3509172e-08,
				0.886037052
			],
			"mesh": 0
		},
		{
			"name": "FoliageInstancedStaticMeshComponent_0:107",
			"translation": [
				126.776199,
				-127.741402,
				96.6524277
			],
			"rotation": [
				5.58809603e-08,
				0.323867023,
				-7.69659678e-08,
				0.946102619
			],
			"mesh": 0
		},
		{
			"name": "FoliageInstancedStaticMeshComponent_0:108",
			"translation": [
				126.990128,
				-127.741402,
				96.9968109
			],
			"rotation": [
				-6.55657644e-08,
				-0.871752858,
				-6.89026223e-08,
				0.489945859
			],
			"mesh": 0
		},
		{
			"name": "FoliageInstancedStaticMeshComponent_0:109",
			"translation": [
				126.197243,
				-127.741402,
				97.5157318
			],
			"rotation": [
				-6.22920666e-08,
				-0.84803617,
				-7.1875867e-08,
				0.52993834
			],
			"mesh": 0
		},
		{
			"name": "FoliageInstancedStaticMeshComponent_0:110",
			"translation": [
				126.35527,
				-127.741402,
				97.9780121
			],
			"rotation": [
				5.01759096e-08,
				0.254686028,
				-8.08011151e-08,
				0.96702379
			],
			"mesh": 0
		},
		{
			"name": "FoliageInstancedStaticMeshComponent_0:111",
			"translation": [
				126.280525,
				-127.741402,
				97.976944
			],
			"rotation": [
				-1.6557383e-08,
				-0.455695719,
				-9.36605318e-08,
				0.890135646
			],
			"mesh": 0
		},
		{
			"name": "FoliageInstancedStaticMeshComponent_0:112",
			"translation": [
				125.725906,
				-127.741402,
				98.4563446
			],
			"rotation": [
				-9.32159381e-08,
				-0.995188951,
				-1.89005451e-08,
				-0.09797436
			],
			"mesh": 0
		},
		{
			"name": "FoliageInstancedStaticMeshComponent_0:113",
			"translation": [
				125.577232,
				-127.741402,
				98.4318848
			],
			"rotation": [
				8.90937173e-08,
				0.792531967,
				-3.3297944e-08,
				0.609830558
			],
			"mesh": 0
		},
		{
			"name": "FoliageInstancedStaticMeshComponent_0:114",
			"translation": [
				125.043861,
				-127.741402,
				97.9406891
			],
			"rotation": [
				3.58087533e-08,
				0.087708205,
				-8.81145539e-08,
				0.996146202
			],
			"mesh": 0
		},
		{
			"name": "FoliageInstancedStaticMeshComponent_0:115",
			"translation": [
				124.538445,
				-127.741402,
				98.6086578
			],
			"rotation": [
				-6.260845e-08,
				-0.850365102,
				-7.16004394e-08,
				0.526193082
			],
			"mesh": 0
		},
		{
			"name": "FoliageInstancedStaticMeshComponent_0:116",
			"translation": [
				125.155121,
				-127.741402,
				98.0014267
			],
			"rotation": [
				-9.30588939e-08,
				-0.87450844,
				1.96592005e-08,
				-0.485010296
			],
			"mesh": 0
		},
		{
			"name": "FoliageInstancedStaticMeshComponent_0:117",
			"translation": [
				124.444168,
				-127.741402,
				97.5364838
			],
			"rotation": [
				-9.04778403e-08,
				-0.999883115,
				-2.93292004e-08,
				0.01528979
			],
			"mesh": 0
		},
		{
			"name": "FoliageInstancedStaticMeshComponent_0:118",
			"translation": [
				124.910332,
				-127.741402,
				97.1693344
			],
			"rotation": [
				-5.10172491e-08,
				-0.760661066,
				-8.02725566e-08,
				0.649149418
			],
			"mesh": 0
		},
		{
			"name": "FoliageInstancedStaticMeshComponent_0:119",
			"translation": [
				124.88356,
				-127.741402,
				97.0511093
			],
			"rotation": [
				8.16761982e-08,
				0.670294404,
				-4.87384924e-08,
				0.742095292
			],
			"mesh": 0
		},
		{
			"name": "FoliageInstancedStaticMeshComponent_0:120",
			"translation": [
				125.709908,
				-127.741402,
				97.2218933
			],
			"rotation": [
				2.07917905e-09,
				-0.272815883,
				-9.50900585e-08,
				0.962066293
			],
			"mesh": 0
		},
		{
			"name": "FoliageInstancedStaticMeshComponent_0:121",
			"translation": [
				124.253197,
				-127.741402,
				97.6807022
			],
			"rotation": [
				8.06494143e-08,
				0.654783487,
				-5.04193736e-08,
				0.755816519
			],
			"mesh": 0
		},
		{
			"name": "FoliageInstancedStaticMeshComponent_0:122",
			"translation": [
				123.600014,
				-127.741402,
				97.6436081
			],
			"rotation": [
				-7.38475805e-08,
				-0.927305102,
				-5.9941442e-08,
				0.374306411
			],
			"mesh": 0
		},
		{
			"name": "FoliageInstancedStaticMeshComponent_0:123",
			"translation": [
				122.87207,
				-127.741402,
				97.1410522
			],
			"rotation": [
				7.49386615e-08,
				0.57221055,
				-5.85716542e-08,
				0.820106745
			],
			"mesh": 0
		},
		{
			"name": "FoliageInstancedStaticMeshComponent_0:124",
			"translation": [
				123.067665,
				-127.741402,
				96.3929977
			],
			"rotation": [
				4.84762239e-08,
				0.234419808,
				-8.18321269e-08,
				0.972135484
			],
			"mesh": 0
		},
		{
			"name": "FoliageInstancedStaticMeshComponent_0:125",
			"translation": [
				122.697136,
				-127.741402,
				96.3928299
			],
			"rotation": [
				-9.05868731e-08,
				-0.999933302,
				-2.89906801e-08,
				0.0115509173
			],
			"mesh": 0
		},
		{
			"name": "FoliageInstancedStaticMeshComponent_0:126",
			"translation": [
				123.455643,
				-127.741402,
				96.1587067
			],
			"rotation": [
				-7.4611556e-08,
				-0.932037294,
				-5.89877693e-08,
				0.362362325
			],
			"mesh": 0
		},
		{
			"name": "FoliageInstancedStaticMeshComponent_0:127",
			"translation": [
				124.705887,
				-127.741402,
				96.698349
			],
			"rotation": [
				7.60972014e-08,
				0.588527977,
				-5.70583651e-08,
				0.808476865
			],
			"mesh": 0
		},
		{
			"name": "FoliageInstancedStaticMeshComponent_0:128",
			"translation": [
				124.232857,
				-127.741402,
				97.3433075
			],
			"rotation": [
				-4.84680527e-08,
				-0.739874005,
				-8.18369656e-08,
				0.672745466
			],
			"mesh": 0
		},
		{
			"name": "FoliageInstancedStaticMeshComponent_0:129",
			"translation": [
				124.086746,
				-127.741402,
				97.2307968
			],
			"rotation": [
				3.81109224e-08,
				0.113843925,
				-8.71435617e-08,
				0.993498743
			],
			"mesh": 0
		},
		{
			"name": "FoliageInstancedStaticMeshComponent_0:130",
			"translation": [
				123.848122,
				-127.741402,
				97.0862885
			],
			"rotation": [
				7.4337887e-09,
				-0.218174219,
				-9.48218499e-08,
				0.975909948
			],
			"mesh": 0
		},
		{
			"name": "FoliageInstancedStaticMeshComponent_0:131",
			"translation": [
				123.936119,
				-127.741402,
				96.6671677
			],
			"rotation": [
				-5.22197396e-08,
				-0.770345926,
				-7.94955497e-08,
				0.63762635
			],
			"mesh": 0
		},
		{
			"name": "FoliageInstancedStaticMeshComponent_0:132",
			"translation": [
				123.817711,
				-127.741402,
				95.8810806
			],
			"rotation": [
				-9.35760127e-08,
				-0.887830734,
				1.70286114e-08,
				-0.460170448
			],
			"mesh": 0
		},
		{
			"name": "FoliageInstancedStaticMeshComponent_0:133",
			"translation": [
				123.389931,
				-127.741402,
				95.4034042
			],
			"rotation": [
				6.03617494e-08,
				0.379590362,
				-7.35044239e-08,
				0.925154686
			],
			"mesh": 0
		},
		{
			"name": "FoliageInstancedStaticMeshComponent_0:134",
			"translation": [
				123.688934,
				-127.741402,
				97.0752945
			],
			"rotation": [
				-7.09936145e-08,
				-0.908983707,
				-6.32957367e-08,
				0.416831911
			],
			"mesh": 0
		},
		{
			"name": "FoliageInstancedStaticMeshComponent_0:135",
			"translation": [
				123.756454,
				-127.741402,
				96.7222214
			],
			"rotation": [
				-2.31021833e-08,
				-0.517158091,
				-9.22644574e-08,
				0.855889916
			],
			"mesh": 0
		},
		{
			"name": "FoliageInstancedStaticMeshComponent_0:136",
			"translation": [
				123.131187,
				-127.741402,
				97.7686768
			],
			"rotation": [
				-1.41816487e-08,
				-0.433021516,
				-9.40495752e-08,
				0.901383579
			],
			"mesh": 0
		},
		{
			"name": "FoliageInstancedStaticMeshComponent_0:137",
			"translation": [
				123.256371,
				-127.741402,
				97.8772507
			],
			"rotation": [
				-9.46658645e-08,
				-0.979827702,
				-9.20970944e-09,
				-0.199844629
			],
			"mesh": 0
		},
		{
			"name": "FoliageInstancedStaticMeshComponent_0:138",
			"translation": [
				122.61985,
				-127.741402,
				98.3123932
			],
			"rotation": [
				1.28822428e-08,
				-0.161609411,
				-9.42363485e-08,
				0.986854792
			],
			"mesh": 0
		},
		{
			"name": "FoliageInstancedStaticMeshComponent_0:139",
			"translation": [
				122.682182,
				-127.741402,
				98.2878799
			],
			"rotation": [
				-9.39358458e-08,
				-0.990118027,
				-1.4916484e-08,
				-0.140237316
			],
			"mesh": 0
		},
		{
			"name": "FoliageInstancedStaticMeshComponent_0:140",
			"translation": [
				123.556503,
				-127.741402,
				98.6478653
			],
			"rotation": [
				-4.54229294e-08,
				-0.71461004,
				-8.35655385e-08,
				0.699523032
			],
			"mesh": 0
		},
		{
			"name": "FoliageInstancedStaticMeshComponent_0:141",
			"translation": [
				123.994278,
				-127.741402,
				99.3779449
			],
			"rotation": [
				-3.50128353e-08,
				-0.625026822,
				-8.84338363e-08,
				0.78060329
			],
			"mesh": 0
		},
		{
			"name": "FoliageInstancedStaticMeshComponent_0:142",
			"translation": [
				124.927567,
				-127.741402,
				99.2389145
			],
			"rotation": [
				6.48624194e-08,
				0.436989129,
				-6.95651323e-08,
				0.899466813
			],
			"mesh": 0
		},
		{
			"name": "FoliageInstancedStaticMeshComponent_0:143",
			"translation": [
				124.827583,
				-127.741402,
				99.0949097
			],
			"rotation": [
				-8.05329918e-08,
				-0.965655029,
				-5.0605145e-08,
				0.259827942
			],
			"mesh": 0
		},
		{
			"name": "FoliageInstancedStaticMeshComponent_0:144",
			"translation": [
				125.343712,
				-127.741402,
				99.2191391
			],
			"rotation": [
				-8.20105086e-08,
				-0.972994208,
				-4.81738489e-08,
				0.230829969
			],
			"mesh": 0
		},
		{
			"name": "FoliageInstancedStaticMeshComponent_0:145",
			"translation": [
				123.19664,
				-127.741402,
				99.2594299
			],
			"mesh": 0
		},
		{
			"name": "FoliageInstancedStaticMeshComponent_0:146",
			"translation": [
				122.782806,
				-127.741402,
				99.7520676
			],
			"rotation": [
				-3.92103594e-08,
				-0.661715269,
				-8.66544241e-08,
				0.749755204
			],
			"mesh": 0
		},
		{
			"name": "FoliageInstancedStaticMeshComponent_0:147",
			"translation": [
				122.511734,
				-127.741402,
				99.4414749
			],
			"rotation": [
				-3.89359975e-08,
				-0.659339845,
				-8.67780443e-08,
				0.751845062
			],
			"mesh": 0
		},
		{
			"name": "FoliageInstancedStaticMeshComponent_0:148",
			"translation": [
				122.43779,
				-127.741402,
				99.2409134
			],
			"rotation": [
				-7.93523469e-08,
				-0.959448099,
				-5.24370769e-08,
				0.281885386
			],
			"mesh": 0
		},
		{
			"name": "FoliageInstancedStaticMeshComponent_0:149",
			"translation": [
				122.349731,
				-127.741402,
				98.6524963
			],
			"rotation": [
				7.43395461e-08,
				0.563846469,
				-5.93302119e-08,
				0.825879633
			],
			"mesh": 0
		},
		{
			"name": "FoliageInstancedStaticMeshComponent_0:150",
			"translation": [
				122.233795,
				-127.741402,
				98.8648453
			],
			"rotation": [
				9.0067374e-08,
				0.810753763,
				-3.05665289e-08,
				0.585387528
			],
			"mesh": 0
		},
		{
			"name": "FoliageInstancedStaticMeshComponent_0:151",
			"translation": [
				121.90612,
				-127.741402,
				97.8374023
			],
			"rotation": [
				3.96256574e-08,
				0.131161809,
				-8.6465306e-08,
				0.991360962
			],
			"mesh": 0
		},
		{
			"name": "FoliageInstancedStaticMeshComponent_0:152",
			"translation": [
				122.126625,
				-127.741402,
				97.4796448
			],
			"rotation": [
				-9.41262712e-08,
				-0.988161147,
				-1.36633256e-08,
				-0.153419614
			],
			"mesh": 0
		},
		{
			"name": "FoliageInstancedStaticMeshComponent_0:153",
			"translation": [
				122.978584,
				-127.741402,
				98.1619797
			],
			"rotation": [
				-6.83737789e-10,
				-0.3006455,
				-9.51103374e-08,
				0.953736067
			],
			"mesh": 0
		},
		{
			"name": "FoliageInstancedStaticMeshComponent_0:154",
			"translation": [
				123.673141,
				-127.741402,
				99.2810898
			],
			"rotation": [
				-4.27566782e-08,
				-0.692123592,
				-8.49606252e-08,
				0.721778989
			],
			"mesh": 0
		},
		{
			"name": "FoliageInstancedStaticMeshComponent_0:155",
			"translation": [
				123.714371,
				-127.741402,
				99.3470306
			],
			"rotation": [
				-1.05652385e-08,
				-0.398142904,
				-9.45241609e-08,
				0.917323411
			],
			"mesh": 0
		},
		{
			"name": "FoliageInstancedStaticMeshComponent_0:156",
			"translation": [
				123.709023,
				-127.741402,
				99.6219254
			],
			"rotation": [
				-9.38336697e-08,
				-0.894998908,
				1.55462079e-08,
				-0.446068287
			],
			"mesh": 0
		},
		{
			"name": "FoliageInstancedStaticMeshComponent_0:157",
			"translation": [
				123.783409,
				-127.741402,
				99.6360931
			],
			"rotation": [
				-4.69693084e-08,
				-0.727496862,
				-8.27062649e-08,
				0.686111033
			],
			"mesh": 0
		},
		{
			"name": "FoliageInstancedStaticMeshComponent_0:158",
			"translation": [
				124.872627,
				-127.741402,
				99.791275
			],
			"rotation": [
				8.96184673e-08,
				0.802251399,
				-3.18586189e-08,
				0.596986353
			],
			"mesh": 0
		},
		{
			"name": "FoliageInstancedStaticMeshComponent_0:159",
			"translation": [
				124.646851,
				-127.741402,
				99.9359512
			],
			"rotation": [
				-9.4238267e-08,
				-0.907336473,
				1.28683117e-08,
				-0.420405447
			],
			"mesh": 0
		},
		{
			"name": "FoliageInstancedStaticMeshComponent_0:160",
			"translation": [
				125.849297,
				-127.741402,
				98.6147919
			],
			"rotation": [
				-2.43120599e-08,
				-0.52835536,
				-9.19530621e-08,
				0.849023342
			],
			"mesh": 0
		},
		{
			"name": "FoliageInstancedStaticMeshComponent_0:161",
			"translation": [
				126.134483,
				-127.741402,
				98.951622
			],
			"rotation": [
				-9.0595611e-09,
				-0.383493394,
				-9.46803382e-08,
				0.923543632
			],
			"mesh": 0
		},
		{
			"name": "FoliageInstancedStaticMeshComponent_0:162",
			"translation": [
				117.727318,
				-127.741402,
				92.7906723
			],
			"rotation": [
				-6.55195151e-08,
				-0.87142396,
				-6.89466191e-08,
				0.490530849
			],
			"mesh": 0
		},
		{
			"name": "FoliageInstancedStaticMeshComponent_0:163",
			"translation": [
				117.345512,
				-127.741402,
				93.0935516
			],
			"rotation": [
				-9.39128384e-08,
				-0.990331888,
				-1.50605608e-08,
				-0.138718307
			],
			"mesh": 0
		},
		{
			"name": "FoliageInstancedStaticMeshComponent_0:164",
			"translation": [
				116.695213,
				-127.719978,
				93.5200043
			],
			"rotation": [
				3.29243797e-08,
				-0.988924265,
				-2.99677865e-08,
				0.148421735
			],
			"mesh": 0
		},
		{
			"name": "FoliageInstancedStaticMeshComponent_0:165",
			"translation": [
				116.805893,
				-127.741402,
				94.1579742
			],
			"rotation": [
				-3.49619569e-08,
				-0.624577701,
				-8.84539588e-08,
				0.780962706
			],
			"mesh": 0
		},
		{
			"name": "FoliageInstancedStaticMeshComponent_0:166",
			"translation": [
				116.370384,
				-127.741402,
				94.7495651
			],
			"rotation": [
				2.83516126e-08,
				0.00450430159,
				-9.07889159e-08,
				0.999989867
			],
			"mesh": 0
		},
		{
			"name": "FoliageInstancedStaticMeshComponent_0:167",
			"translation": [
				116.19809,
				-127.741402,
				95.4455948
			],
			"rotation": [
				2.31025492e-08,
				-0.0528055094,
				-9.22643721e-08,
				0.998604834
			],
			"mesh": 0
		},
		{
			"name": "FoliageInstancedStaticMeshComponent_0:168",
			"translation": [
				116.101822,
				-127.741402,
				94.8277969
			],
			"rotation": [
				-7.9592823e-08,
				-0.960735202,
				-5.20713357e-08,
				0.277466983
			],
			"mesh": 0
		},
		{
			"name": "FoliageInstancedStaticMeshComponent_0:169",
			"translation": [
				115.932449,
				-127.741402,
				96.1451187
			],
			"rotation": [
				7.6823973e-08,
				0.598866165,
				-5.6076022e-08,
				0.800849259
			],
			"mesh": 0
		},
		{
			"name": "FoliageInstancedStaticMeshComponent_0:170",
			"translation": [
				116.500572,
				-127.741402,
				96.7025299
			],
			"rotation": [
				-8.10335692e-08,
				-0.968197763,
				-4.97996382e-08,
				0.250186503
			],
			"mesh": 0
		},
		{
			"name": "FoliageInstancedStaticMeshComponent_0:171",
			"translation": [
				116.394707,
				-127.741402,
				96.4000015
			],
			"rotation": [
				3.97416784e-08,
				0.132492334,
				-8.64120366e-08,
				0.991184056
			],
			"mesh": 0
		},
		{
			"name": "FoliageInstancedStaticMeshComponent_0:172",
			"translation": [
				116.727676,
				-127.741402,
				96.432579
			],
			"rotation": [
				1.73384223e-08,
				-0.11460989,
				-9.35190911e-08,
				0.993410587
			],
			"mesh": 0
		},
		{
			"name": "FoliageInstancedStaticMeshComponent_0:173",
			"translation": [
				116.802185,
				-127.741402,
				96.1609421
			],
			"rotation": [
				-9.46945633e-08,
				-0.924149215,
				8.90977425e-09,
				-0.382032007
			],
			"mesh": 0
		},
		{
			"name": "FoliageInstancedStaticMeshComponent_0:174",
			"translation": [
				117.058846,
				-127.741402,
				95.9904251
			],
			"rotation": [
				-9.50692822e-08,
				-0.964321196,
				-2.87683122e-09,
				-0.264735371
			],
			"mesh": 0
		},
		{
			"name": "FoliageInstancedStaticMeshComponent_0:175",
			"translation": [
				116.996811,
				-127.741402,
				94.9895401
			],
			"rotation": [
				-9.11781939e-08,
				-0.999954581,
				-2.70736358e-08,
				-0.00954158325
			],
			"mesh": 0
		},
		{
			"name": "FoliageInstancedStaticMeshComponent_0:176",
			"translation": [
				116.535194,
				-127.741402,
				95.5581589
			],
			"rotation": [
				-6.2731921e-08,
				-0.851271927,
				-7.14922876e-08,
				0.524724782
			],
			"mesh": 0
		},
		{
			"name": "FoliageInstancedStaticMeshComponent_0:177",
			"translation": [
				117.688057,
				-127.741402,
				94.4395752
			],
			"rotation": [
				-9.50550358e-08,
				-0.965529323,
				-3.31431504e-09,
				-0.260294706
			],
			"mesh": 0
		},
		{
			"name": "FoliageInstancedStaticMeshComponent_0:178",
			"translation": [
				117.748314,
				-127.741402,
				94.3086014
			],
			"rotation": [
				2.90731901e-08,
				0.012461788,
				-9.05604409e-08,
				0.999922454
			],
			"mesh": 0
		},
		{
			"name": "FoliageInstancedStaticMeshComponent_0:179",
			"translation": [
				117.637543,
				-127.741402,
				93.5596542
			],
			"rotation": [
				8.77303918e-08,
				0.768199265,
				-3.67398982e-08,
				0.640210807
			],
			"mesh": 0
		},
		{
			"name": "FoliageInstancedStaticMeshComponent_0:180",
			"translation": [
				118.316078,
				-127.741402,
				93.1171494
			],
			"rotation": [
				-4.25610729e-08,
				-0.69046098,
				-8.50587938e-08,
				0.723369718
			],
			"mesh": 0
		},
		{
			"name": "FoliageInstancedStaticMeshComponent_0:181",
			"translation": [
				118.832367,
				-127.719978,
				93.8108368
			],
			"rotation": [
				-5.58427882e-09,
				0.848506689,
				4.41689743e-08,
				0.529184639
			],
			"mesh": 0
		},
		{
			"name": "FoliageInstancedStaticMeshComponent_0:182",
			"translation": [
				118.409294,
				-127.741402,
				93.6124878
			],
			"rotation": [
				6.55858656e-08,
				0.446365029,
				-6.88835087e-08,
				0.894851089
			],
			"mesh": 0
		},
		{
			"name": "FoliageInstancedStaticMeshComponent_0:183",
			"translation": [
				118.675102,
				-127.719978,
				94.3498535
			],
			"rotation": [
				4.39692123e-08,
				-0.501953721,
				6.98505165e-09,
				0.864894509
			],
			"mesh": 0
		},
		{
			"name": "FoliageInstancedStaticMeshComponent_0:184",
			"translation": [
				118.011833,
				-127.741402,
				94.5746689
			],
			"rotation": [
				-4.69137902e-08,
				-0.727036238,
				-8.27377633e-08,
				0.686599135
			],
			"mesh": 0
		},
		{
			"name": "FoliageInstancedStaticMeshComponent_0:185",
			"translation": [
				118.08683,
				-127.741402,
				94.9469833
			],
			"rotation": [
				-7.05977783e-08,
				-0.906368375,
				-6.3736934e-08,
				0.42248857
			],
			"mesh": 0
		},
		{
			"name": "FoliageInstancedStaticMeshComponent_0:186",
			"translation": [
				117.755753,
				-127.741402,
				94.8039246
			],
			"rotation": [
				-9.31483015e-08,
				-0.995530248,
				-1.92311056e-08,
				-0.094443351
			],
			"mesh": 0
		},
		{
			"name": "FoliageInstancedStaticMeshComponent_0:187",
			"translation": [
				117.81118,
				-127.741402,
				94.9643402
			],
			"rotation": [
				7.93475294e-08,
				0.635444939,
				-5.24443635e-08,
				0.772146165
			],
			"mesh": 0
		},
		{
			"name": "FoliageInstancedStaticMeshComponent_0:188",
			"translation": [
				117.93663,
				-127.741402,
				95.3664246
			],
			"rotation": [
				8.92428531e-08,
				0.795271814,
				-3.28961285e-08,
				0.606253028
			],
			"mesh": 0
		},
		{
			"name": "FoliageInstancedStaticMeshComponent_0:189",
			"translation": [
				117.007469,
				-127.741402,
				95.5007629
			],
			"rotation": [
				-6.35638671e-08,
				-0.857351363,
				-7.075365e-08,
				0.514731824
			],
			"mesh": 0
		},
		{
			"name": "FoliageInstancedStaticMeshComponent_0:190",
			"translation": [
				117.180779,
				-127.741402,
				95.3750305
			],
			"rotation": [
				-7.3720976e-08,
				-0.926513493,
				-6.00970793e-08,
				0.376261532
			],
			"mesh": 0
		},
		{
			"name": "FoliageInstancedStaticMeshComponent_0:191",
			"translation": [
				116.93663,
				-127.741402,
				95.6931458
			],
			"rotation": [
				-2.65001479e-08,
				-0.548471868,
				-9.13465072e-08,
				0.836169004
			],
			"mesh": 0
		},
		{
			"name": "FoliageInstancedStaticMeshComponent_0:192",
			"translation": [
				117.628052,
				-127.741402,
				95.6201706
			],
			"rotation": [
				-9.42357801e-08,
				-0.907255769,
				1.288638e-08,
				-0.420579374
			],
			"mesh": 0
		},
		{
			"name": "FoliageInstancedStaticMeshComponent_0:193",
			"translation": [
				127.571297,
				-127.741402,
				87.5826645
			],
			"rotation": [
				9.06147619e-08,
				0.821391761,
				-2.89034556e-08,
				0.570364594
			],
			"mesh": 0
		},
		{
			"name": "FoliageInstancedStaticMeshComponent_0:194",
			"translation": [
				127.475143,
				-127.741402,
				88.1090546
			],
			"rotation": [
				8.00147362e-08,
				0.645312309,
				-5.14206562e-08,
				0.763918877
			],
			"mesh": 0
		},
		{
			"name": "FoliageInstancedStaticMeshComponent_0:195",
			"translation": [
				127.859932,
				-127.741402,
				88.9575958
			],
			"rotation": [
				9.07985438e-08,
				0.825038612,
				-2.8320768e-08,
				0.565076351
			],
			"mesh": 0
		},
		{
			"name": "FoliageInstancedStaticMeshComponent_0:196",
			"translation": [
				127.774681,
				-127.741402,
				88.3589859
			],
			"rotation": [
				8.73524826e-08,
				0.761653304,
				-3.76295795e-08,
				0.647984743
			],
			"mesh": 0
		},
		{
			"name": "FoliageInstancedStaticMeshComponent_0:197",
			"translation": [
				127.4478,
				-127.719978,
				87.0687561
			],
			"rotation": [
				2.2981304e-08,
				0.338189185,
				3.81305938e-08,
				0.941078126
			],
			"mesh": 0
		},
		{
			"name": "FoliageInstancedStaticMeshComponent_0:198",
			"translation": [
				127.123009,
				-127.719978,
				87.1866379
			],
			"rotation": [
				4.42174688e-08,
				-0.717467308,
				-5.18631715e-09,
				0.696592152
			],
			"mesh": 0
		},
		{
			"name": "FoliageInstancedStaticMeshComponent_0:199",
			"translation": [
				127.22187,
				-127.741402,
				87.3102112
			],
			"rotation": [
				3.53436249e-08,
				0.0824542716,
				-8.83021514e-08,
				0.996594846
			],
			"mesh": 0
		},
		{
			"name": "FoliageInstancedStaticMeshComponent_0:200",
			"translation": [
				127.154274,
				-127.741402,
				87.8138428
			],
			"rotation": [
				-8.43641743e-08,
				-0.983514845,
				-4.3921851e-08,
				0.18082799
			],
			"mesh": 0
		},
		{
			"name": "FoliageInstancedStaticMeshComponent_0:201",
			"translation": [
				126.842194,
				-127.741402,
				88.2377167
			],
			"rotation": [
				-9.50695451e-08,
				-0.964295745,
				-2.86771606e-09,
				-0.264827818
			],
			"mesh": 0
		},
		{
			"name": "FoliageInstancedStaticMeshComponent_0:202",
			"translation": [
				126.903786,
				-127.741402,
				88.461792
			],
			"rotation": [
				-8.23137043e-08,
				-0.974435389,
				-4.76539306e-08,
				0.224668339
			],
			"mesh": 0
		},
		{
			"name": "FoliageInstancedStaticMeshComponent_0:203",
			"translation": [
				127.34848,
				-127.741402,
				88.2273026
			],
			"rotation": [
				8.00787774e-08,
				0.646264136,
				-5.13208747e-08,
				0.763113916
			],
			"mesh": 0
		},
		{
			"name": "FoliageInstancedStaticMeshComponent_0:204",
			"translation": [
				112.089828,
				-127.741402,
				106.15863
			],
			"rotation": [
				-9.38247098e-08,
				-0.894742191,
				1.56001825e-08,
				-0.446583062
			],
			"mesh": 0
		},
		{
			"name": "FoliageInstancedStaticMeshComponent_0:205",
			"translation": [
				111.841797,
				-127.741402,
				105.628021
			],
			"rotation": [
				-9.3131753e-08,
				-0.876315892,
				1.93110967e-08,
				-0.481736928
			],
			"mesh": 0
		},
		{
			"name": "FoliageInstancedStaticMeshComponent_0:206",
			"translation": [
				111.942047,
				-127.741402,
				106.147911
			],
			"rotation": [
				5.96400511e-08,
				0.370524913,
				-7.40912114e-08,
				0.928822637
			],
			"mesh": 0
		},
		{
			"name": "FoliageInstancedStaticMeshComponent_0:207",
			"translation": [
				111.607574,
				-127.741402,
				105.614044
			],
			"rotation": [
				-5.96539493e-08,
				-0.82833153,
				-7.40800132e-08,
				0.560238242
			],
			"mesh": 0
		},
		{
			"name": "FoliageInstancedStaticMeshComponent_0:208",
			"translation": [
				111.643585,
				-127.741402,
				105.987724
			],
			"rotation": [
				-3.07176045e-08,
				-0.58674705,
				-9.00159591e-08,
				0.809770405
			],
			"mesh": 0
		},
		{
			"name": "FoliageInstancedStaticMeshComponent_0:209",
			"translation": [
				110.908936,
				-127.741394,
				106.08316
			],
			"rotation": [
				-9.39670812e-08,
				-0.989819884,
				-1.47183057e-08,
				-0.142325506
			],
			"mesh": 0
		},
		{
			"name": "FoliageInstancedStaticMeshComponent_0:210",
			"translation": [
				111.593422,
				-127.741402,
				105.081726
			],
			"rotation": [
				-9.22499552e-08,
				-0.998637557,
				-2.31600428e-08,
				-0.0521831885
			],
			"mesh": 0
		},
		{
			"name": "FoliageInstancedStaticMeshComponent_0:211",
			"translation": [
				112.486885,
				-127.741402,
				105.074135
			],
			"rotation": [
				-9.31666975e-08,
				-0.995439231,
				-1.91417779e-08,
				-0.0953978971
			],
			"mesh": 0
		},
		{
			"name": "FoliageInstancedStaticMeshComponent_0:212",
			"translation": [
				112.671371,
				-127.741402,
				104.602402
			],
			"rotation": [
				3.34391963e-08,
				0.0610334985,
				-8.9040789e-08,
				0.998135746
			],
			"mesh": 0
		},
		{
			"name": "FoliageInstancedStaticMeshComponent_0:213",
			"translation": [
				112.39682,
				-127.741402,
				104.341042
			],
			"rotation": [
				-9.41741618e-08,
				-0.987610757,
				-1.33293332e-08,
				-0.156924129
			],
			"mesh": 0
		},
		{
			"name": "FoliageInstancedStaticMeshComponent_0:214",
			"translation": [
				112.506622,
				-127.741402,
				103.714439
			],
			"rotation": [
				-7.59709664e-08,
				-0.940258563,
				-5.72263339e-08,
				0.340461195
			],
			"mesh": 0
		},
		{
			"name": "FoliageInstancedStaticMeshComponent_0:215",
			"translation": [
				113.372948,
				-127.741402,
				103.38855
			],
			"rotation": [
				8.22773174e-08,
				0.679491639,
				-4.77167106e-08,
				0.733683228
			],
			"mesh": 0
		},
		{
			"name": "FoliageInstancedStaticMeshComponent_0:216",
			"translation": [
				112.618378,
				-127.741402,
				103.576767
			],
			"rotation": [
				-8.87799345e-09,
				-0.381721854,
				-9.46975476e-08,
				0.924277365
			],
			"mesh": 0
		},
		{
			"name": "FoliageInstancedStaticMeshComponent_0:217",
			"translation": [
				113.619125,
				-127.741402,
				102.987282
			],
			"rotation": [
				8.26995077e-08,
				0.686006427,
				-4.69811958e-08,
				0.727595448
			],
			"mesh": 0
		},
		{
			"name": "FoliageInstancedStaticMeshComponent_0:218",
			"translation": [
				113.285446,
				-127.741402,
				103.05069
			],
			"rotation": [
				5.64402995e-08,
				0.330752313,
				-7.65567378e-08,
				0.943717599
			],
			"mesh": 0
		},
		{
			"name": "FoliageInstancedStaticMeshComponent_0:219",
			"translation": [
				112.725304,
				-127.741402,
				103.084305
			],
			"rotation": [
				4.67077399e-08,
				0.213489547,
				-8.2854271e-08,
				0.97694546
			],
			"mesh": 0
		},
		{
			"name": "FoliageInstancedStaticMeshComponent_0:220",
			"translation": [
				112.715973,
				-127.741402,
				102.910378
			],
			"rotation": [
				-5.1868625e-08,
				-0.767526209,
				-7.97250763e-08,
				0.641017556
			],
			"mesh": 0
		},
		{
			"name": "FoliageInstancedStaticMeshComponent_0:221",
			"translation": [
				112.723747,
				-127.741402,
				104.402519
			],
			"rotation": [
				-6.83815955e-08,
				-0.891422749,
				-6.61089885e-08,
				0.453172714
			],
			"mesh": 0
		},
		{
			"name": "FoliageInstancedStaticMeshComponent_0:222",
			"translation": [
				112.713669,
				-127.741402,
				103.658257
			],
			"rotation": [
				9.12454894e-08,
				0.834085882,
				-2.68458997e-08,
				0.55163461
			],
			"mesh": 0
		},
		{
			"name": "FoliageInstancedStaticMeshComponent_0:223",
			"translation": [
				112.704308,
				-127.741402,
				104.253601
			],
			"rotation": [
				6.11475528e-08,
				0.389502704,
				-7.2852032e-08,
				0.921025336
			],
			"mesh": 0
		},
		{
			"name": "FoliageInstancedStaticMeshComponent_0:224",
			"translation": [
				112.725456,
				-127.741402,
				103.861679
			],
			"rotation": [
				-5.12095006e-08,
				-0.76221472,
				-8.01500377e-08,
				0.647324264
			],
			"mesh": 0
		},
		{
			"name": "FoliageInstancedStaticMeshComponent_0:225",
			"translation": [
				112.994469,
				-127.741402,
				104.027222
			],
			"rotation": [
				-8.89523193e-08,
				-0.997971416,
				-3.3673853e-08,
				0.0636650398
			],
			"mesh": 0
		},
		{
			"name": "FoliageInstancedStaticMeshComponent_0:226",
			"translation": [
				107.091179,
				-127.741394,
				89.1641846
			],
			"rotation": [
				-9.42071381e-08,
				-0.906326056,
				1.30941604e-08,
				-0.42257905
			],
			"mesh": 0
		},
		{
			"name": "FoliageInstancedStaticMeshComponent_0:227",
			"translation": [
				107.376801,
				-127.741394,
				88.3781052
			],
			"rotation": [
				7.47811555e-08,
				0.570006907,
				-5.87726134e-08,
				0.821639895
			],
			"mesh": 0
		},
		{
			"name": "FoliageInstancedStaticMeshComponent_0:228",
			"translation": [
				107.594666,
				-127.741394,
				88.0833282
			],
			"rotation": [
				2.83690209e-08,
				0.0046960474,
				-9.07834803e-08,
				0.999988973
			],
			"mesh": 0
		},
		{
			"name": "FoliageInstancedStaticMeshComponent_0:229",
			"translation": [
				107.543007,
				-127.741394,
				88.8032761
			],
			"rotation": [
				4.65262801e-10,
				-0.289102256,
				-9.5111659e-08,
				0.957298338
			],
			"mesh": 0
		},
		{
			"name": "FoliageInstancedStaticMeshComponent_0:230",
			"translation": [
				107.528839,
				-127.741394,
				88.4865723
			],
			"rotation": [
				9.94154092e-10,
				-0.283774406,
				-9.51075876e-08,
				0.958891094
			],
			"mesh": 0
		},
		{
			"name": "FoliageInstancedStaticMeshComponent_0:231",
			"translation": [
				107.88282,
				-127.741394,
				87.9671631
			],
			"rotation": [
				-9.51098045e-08,
				-0.958167017,
				-7.52512386e-10,
				-0.286209732
			],
			"mesh": 0
		},
		{
			"name": "FoliageInstancedStaticMeshComponent_0:232",
			"translation": [
				108.302391,
				-127.741394,
				88.1913376
			],
			"rotation": [
				7.91205323e-08,
				0.632107794,
				-5.27862056e-08,
				0.774880469
			],
			"mesh": 0
		},
		{
			"name": "FoliageInstancedStaticMeshComponent_0:233",
			"translation": [
				108.641159,
				-127.741394,
				88.1644211
			],
			"rotation": [
				8.95172221e-08,
				0.800358534,
				-3.21420082e-08,
				0.599521697
			],
			"mesh": 0
		},
		{
			"name": "FoliageInstancedStaticMeshComponent_0:234",
			"translation": [
				109.437012,
				-127.741394,
				88.4123383
			],
			"rotation": [
				8.49696935e-09,
				-0.207213357,
				-9.4732485e-08,
				0.978295803
			],
			"mesh": 0
		},
		{
			"name": "FoliageInstancedStaticMeshComponent_0:235",
			"translation": [
				109.50251,
				-127.741394,
				88.4538193
			],
			"rotation": [
				-7.77222411e-08,
				-0.950439095,
				-5.48242376e-08,
				0.310911119
			],
			"mesh": 0
		},
		{
			"name": "FoliageInstancedStaticMeshComponent_0:236",
			"translation": [
				108.88903,
				-127.741394,
				89.070694
			],
			"rotation": [
				8.95695038e-08,
				0.801334679,
				-3.19960698e-08,
				0.598216474
			],
			"mesh": 0
		},
		{
			"name": "FoliageInstancedStaticMeshComponent_0:237",
			"translation": [
				109.044159,
				-127.741394,
				88.7103043
			],
			"rotation": [
				-9.42809066e-08,
				-0.908742011,
				1.25520012e-08,
				-0.417358279
			],
			"mesh": 0
		},
		{
			"name": "FoliageInstancedStaticMeshComponent_0:238",
			"translation": [
				109.111679,
				-127.741394,
				89.4250488
			],
			"rotation": [
				6.78088767e-08,
				0.47546187,
				-6.66963089e-08,
				0.879736364
			],
			"mesh": 0
		},
		{
			"name": "FoliageInstancedStaticMeshComponent_0:239",
			"translation": [
				108.552719,
				-127.741394,
				90.0869598
			],
			"rotation": [
				6.14473805e-08,
				0.39329645,
				-7.25993345e-08,
				0.919411838
			],
			"mesh": 0
		},
		{
			"name": "FoliageInstancedStaticMeshComponent_0:240",
			"translation": [
				108.082047,
				-127.741394,
				89.9508667
			],
			"rotation": [
				-9.49192511e-08,
				-0.935195863,
				6.06445871e-09,
				-0.354130924
			],
			"mesh": 0
		},
		{
			"name": "FoliageInstancedStaticMeshComponent_0:241",
			"translation": [
				108.345917,
				-127.741394,
				90.8318634
			],
			"rotation": [
				5.91466787e-09,
				-0.233771265,
				-9.49287013e-08,
				0.972291648
			],
			"mesh": 0
		},
		{
			"name": "FoliageInstancedStaticMeshComponent_0:242",
			"translation": [
				108.057404,
				-127.741394,
				91.3142776
			],
			"rotation": [
				6.78152716e-08,
				0.475546211,
				-6.66898075e-08,
				0.879690766
			],
			"mesh": 0
		},
		{
			"name": "FoliageInstancedStaticMeshComponent_0:243",
			"translation": [
				108.093979,
				-127.741394,
				91.7045746
			],
			"rotation": [
				-3.40356756e-08,
				-0.616382241,
				-8.88145024e-08,
				0.787447214
			],
			"mesh": 0
		},
		{
			"name": "FoliageInstancedStaticMeshComponent_0:244",
			"translation": [
				107.734634,
				-127.741394,
				91.7681122
			],
			"rotation": [
				-2.91683051e-08,
				-0.572764039,
				-9.05298378e-08,
				0.819720268
			],
			"mesh": 0
		},
		{
			"name": "FoliageInstancedStaticMeshComponent_0:245",
			"translation": [
				106.938095,
				-127.741394,
				91.6087799
			],
			"rotation": [
				4.85703389e-08,
				0.23553808,
				-8.17762995e-08,
				0.971865118
			],
			"mesh": 0
		},
		{
			"name": "FoliageInstancedStaticMeshComponent_0:246",
			"translation": [
				107.735016,
				-127.741394,
				91.7900848
			],
			"rotation": [
				-1.19777805e-08,
				-0.411818057,
				-9.43555705e-08,
				0.911266088
			],
			"mesh": 0
		},
		{
			"name": "FoliageInstancedStaticMeshComponent_0:247",
			"translation": [
				107.253883,
				-127.741394,
				92.3130722
			],
			"rotation": [
				-5.47978409e-08,
				-0.790835679,
				-7.77408431e-08,
				0.612028599
			],
			"mesh": 0
		},
		{
			"name": "FoliageInstancedStaticMeshComponent_0:248",
			"translation": [
				106.020782,
				-127.741394,
				91.7649078
			],
			"rotation": [
				-9.28424413e-08,
				-0.869250119,
				2.06573283e-08,
				-0.494372785
			],
			"mesh": 0
		},
		{
			"name": "FoliageInstancedStaticMeshComponent_0:249",
			"translation": [
				106.307533,
				-127.741394,
				91.2743835
			],
			"rotation": [
				6.05307235e-08,
				0.381718099,
				-7.33653422e-08,
				0.924278796
			],
			"mesh": 0
		},
		{
			"name": "FoliageInstancedStaticMeshComponent_0:250",
			"translation": [
				106.721596,
				-127.741394,
				90.7599792
			],
			"rotation": [
				8.85890472e-08,
				0.783381999,
				-3.46182318e-08,
				0.621540546
			],
			"mesh": 0
		},
		{
			"name": "FoliageInstancedStaticMeshComponent_0:251",
			"translation": [
				106.891518,
				-127.741394,
				90.5723343
			],
			"rotation": [
				2.01366355e-08,
				-0.0847512037,
				-9.29567534e-08,
				0.996402144
			],
			"mesh": 0
		},
		{
			"name": "FoliageInstancedStaticMeshComponent_0:252",
			"translation": [
				107.43837,
				-127.741394,
				90.2695389
			],
			"rotation": [
				-6.01709687e-08,
				-0.832232296,
				-7.36606793e-08,
				0.554427087
			],
			"mesh": 0
		},
		{
			"name": "FoliageInstancedStaticMeshComponent_0:253",
			"translation": [
				107.932617,
				-127.741394,
				89.9597015
			],
			"rotation": [
				-9.4394693e-08,
				-0.912623405,
				1.16656089e-08,
				-0.408801585
			],
			"mesh": 0
		},
		{
			"name": "FoliageInstancedStaticMeshComponent_0:254",
			"translation": [
				108.172157,
				-127.741394,
				88.8974991
			],
			"rotation": [
				1.46094636e-10,
				-0.29231301,
				-9.5112668e-08,
				0.95632273
			],
			"mesh": 0
		},
		{
			"name": "FoliageInstancedStaticMeshComponent_0:255",
			"translation": [
				107.81105,
				-127.741394,
				89.4818497
			],
			"rotation": [
				-8.9818144e-08,
				-0.999313593,
				-3.12912611e-08,
				0.0370459259
			],
			"mesh": 0
		},
		{
			"name": "FoliageInstancedStaticMeshComponent_0:256",
			"translation": [
				106.969772,
				-127.741394,
				89.9570389
			],
			"rotation": [
				-8.41356425e-08,
				-0.982565343,
				-4.4358039e-08,
				0.185917497
			],
			"mesh": 0
		},
		{
			"name": "FoliageInstancedStaticMeshComponent_0:257",
			"translation": [
				107.434219,
				-127.741394,
				90.5
			],
			"rotation": [
				-9.32913622e-08,
				-0.880349159,
				1.85246503e-08,
				-0.474326253
			],
			"mesh": 0
		},
		{
			"name": "FoliageInstancedStaticMeshComponent_0:258",
			"translation": [
				106.862732,
				-127.741394,
				91.1431351
			],
			"rotation": [
				8.85358418e-08,
				0.782427669,
				-3.47540841e-08,
				0.62274152
			],
			"mesh": 0
		},
		{
			"name": "FoliageInstancedStaticMeshComponent_0:259",
			"translation": [
				107.096619,
				-127.741394,
				91.1435165
			],
			"rotation": [
				-1.81533117e-08,
				-0.470819712,
				-9.33643349e-08,
				0.882229447
			],
			"mesh": 0
		},
		{
			"name": "FoliageInstancedStaticMeshComponent_0:260",
			"translation": [
				107.132431,
				-127.741394,
				90.9741364
			],
			"rotation": [
				9.09225619e-08,
				0.827522755,
				-2.79200414e-08,
				0.561432183
			],
			"mesh": 0
		},
		{
			"name": "FoliageInstancedStaticMeshComponent_0:261",
			"translation": [
				107.602455,
				-127.741394,
				91.6803665
			],
			"rotation": [
				-1.33334721e-08,
				-0.424880415,
				-9.41735649e-08,
				0.905249476
			],
			"mesh": 0
		},
		{
			"name": "FoliageInstancedStaticMeshComponent_0:262",
			"translation": [
				107.857811,
				-127.741394,
				90.7331619
			],
			"rotation": [
				-8.93119108e-08,
				-0.998602509,
				-3.27081686e-08,
				0.0528493486
			],
			"mesh": 0
		},
		{
			"name": "FoliageInstancedStaticMeshComponent_0:263",
			"translation": [
				107.761513,
				-127.741394,
				90.9599457
			],
			"rotation": [
				8.37196623e-08,
				0.701951325,
				-4.51382327e-08,
				0.712224901
			],
			"mesh": 0
		},
		{
			"name": "FoliageInstancedStaticMeshComponent_0:264",
			"translation": [
				103.060272,
				-127.741394,
				98.6001053
			],
			"rotation": [
				-6.4541311e-08,
				-0.86442405,
				-6.98631624e-08,
				0.50276345
			],
			"mesh": 0
		},
		{
			"name": "FoliageInstancedStaticMeshComponent_0:265",
			"translation": [
				102.771255,
				-127.741394,
				97.9525452
			],
			"rotation": [
				3.23011058e-08,
				0.0483011752,
				-8.94599381e-08,
				0.998832822
			],
			"mesh": 0
		},
		{
			"name": "FoliageInstancedStaticMeshComponent_0:266",
			"translation": [
				102.903305,
				-127.741394,
				98.8052216
			],
			"rotation": [
				-3.08470298e-08,
				-0.58791101,
				-8.99716923e-08,
				0.808925748
			],
			"mesh": 0
		},
		{
			"name": "FoliageInstancedStaticMeshComponent_0:267",
			"translation": [
				102.757751,
				-127.741394,
				99.330513
			],
			"rotation": [
				-8.50320774e-08,
				-0.986188769,
				-4.26144027e-08,
				0.165625289
			],
			"mesh": 0
		},
		{
			"name": "FoliageInstancedStaticMeshComponent_0:268",
			"translation": [
				102.08316,
				-127.741394,
				100.019539
			],
			"rotation": [
				4.33262528e-08,
				0.173892736,
				-8.46715906e-08,
				0.984764695
			],
			"mesh": 0
		},
		{
			"name": "FoliageInstancedStaticMeshComponent_0:269",
			"translation": [
				102.000259,
				-127.741394,
				99.7265778
			],
			"rotation": [
				8.63950405e-08,
				0.745393217,
				-3.97786195e-08,
				0.666625023
			],
			"mesh": 0
		},
		{
			"name": "FoliageInstancedStaticMeshComponent_0:270",
			"translation": [
				102.349709,
				-127.741394,
				100.493843
			],
			"rotation": [
				-8.99137262e-08,
				-0.99942255,
				-3.10155421e-08,
				0.0339797661
			],
			"mesh": 0
		},
		{
			"name": "FoliageInstancedStaticMeshComponent_0:271",
			"translation": [
				102.426414,
				-127.741394,
				100.966949
			],
			"rotation": [
				-8.8452154e-08,
				-0.996937692,
				-3.49665541e-08,
				0.0782014206
			],
			"mesh": 0
		},
		{
			"name": "FoliageInstancedStaticMeshComponent_0:272",
			"translation": [
				102.101562,
				-127.741394,
				101.318298
			],
			"rotation": [
				-9.46902645e-08,
				-0.923965871,
				8.95516639e-09,
				-0.382474929
			],
			"mesh": 0
		},
		{
			"name": "FoliageInstancedStaticMeshComponent_0:273",
			"translation": [
				102.124062,
				-127.741394,
				101.723534
			],
			"rotation": [
				-2.03055759e-08,
				-0.491077274,
				-9.29199899e-08,
				0.871116042
			],
			"mesh": 0
		},
		{
			"name": "FoliageInstancedStaticMeshComponent_0:274",
			"translation": [
				101.986092,
				-127.741394,
				102.269089
			],
			"rotation": [
				-9.37069373e-08,
				-0.992068589,
				-1.6292784e-08,
				-0.125698611
			],
			"mesh": 0
		},
		{
			"name": "FoliageInstancedStaticMeshComponent_0:275",
			"translation": [
				102.780876,
				-127.741394,
				102.59066
			],
			"rotation": [
				1.68360508e-08,
				-0.119942032,
				-9.36108364e-08,
				0.992780924
			],
			"mesh": 0
		},
		{
			"name": "FoliageInstancedStaticMeshComponent_0:276",
			"translation": [
				102.364929,
				-127.741394,
				102.462868
			],
			"rotation": [
				6.38079669e-08,
				0.4234007,
				-7.05335736e-08,
				0.9059425
			],
			"mesh": 0
		},
		{
			"name": "FoliageInstancedStaticMeshComponent_0:277",
			"translation": [
				103.113571,
				-127.741394,
				102.164421
			],
			"rotation": [
				-6.24572891e-08,
				-0.849253356,
				-7.17323445e-08,
				0.527985573
			],
			"mesh": 0
		},
		{
			"name": "FoliageInstancedStaticMeshComponent_0:278",
			"translation": [
				103.015884,
				-127.741394,
				101.944771
			],
			"rotation": [
				-9.49911581e-08,
				-0.969502509,
				-4.8084603e-09,
				-0.24508144
			],
			"mesh": 0
		},
		{
			"name": "FoliageInstancedStaticMeshComponent_0:279",
			"translation": [
				102.788406,
				-127.741394,
				101.310661
			],
			"rotation": [
				-9.9396873e-09,
				-0.392065704,
				-9.45919894e-08,
				0.919937253
			],
			"mesh": 0
		},
		{
			"name": "FoliageInstancedStaticMeshComponent_0:280",
			"translation": [
				103.321854,
				-127.741394,
				100.959198
			],
			"rotation": [
				8.1848583e-08,
				0.67292279,
				-4.8448431e-08,
				0.739712715
			],
			"mesh": 0
		},
		{
			"name": "FoliageInstancedStaticMeshComponent_0:281",
			"translation": [
				103.512367,
				-127.741394,
				100.013611
			],
			"rotation": [
				-5.91982641e-08,
				-0.824878275,
				-7.44446567e-08,
				0.565310419
			],
			"mesh": 0
		},
		{
			"name": "FoliageInstancedStaticMeshComponent_0:282",
			"translation": [
				103.714996,
				-127.741394,
				98.601944
			],
			"rotation": [
				1.80999766e-08,
				-0.106510349,
				-9.33747017e-08,
				0.99431169
			],
			"mesh": 0
		},
		{
			"name": "FoliageInstancedStaticMeshComponent_0:283",
			"translation": [
				103.94873,
				-127.741394,
				98.5445938
			],
			"rotation": [
				5.78254564e-08,
				0.347887784,
				-7.5515949e-08,
				0.93753618
			],
			"mesh": 0
		},
		{
			"name": "FoliageInstancedStaticMeshComponent_0:284",
			"translation": [
				104.562515,
				-127.741394,
				99.1533051
			],
			"rotation": [
				-9.47353627e-08,
				-0.925933659,
				8.46480663e-09,
				-0.377686143
			],
			"mesh": 0
		},
		{
			"name": "FoliageInstancedStaticMeshComponent_0:285",
			"translation": [
				103.813339,
				-127.741394,
				98.7714691
			],
			"rotation": [
				9.14637397e-08,
				0.83860594,
				-2.60926374e-08,
				0.544738531
			],
			"mesh": 0
		},
		{
			"name": "FoliageInstancedStaticMeshComponent_0:286",
			"translation": [
				104.225037,
				-127.741394,
				98.3941574
			],
			"rotation": [
				5.19071577e-08,
				0.275485933,
				-7.97000013e-08,
				0.961305201
			],
			"mesh": 0
		},
		{
			"name": "FoliageInstancedStaticMeshComponent_0:287",
			"translation": [
				104.269447,
				-127.741394,
				99.6120377
			],
			"rotation": [
				8.85824107e-08,
				0.783262789,
				-3.46352174e-08,
				0.62169075
			],
			"mesh": 0
		},
		{
			"name": "FoliageInstancedStaticMeshComponent_0:288",
			"translation": [
				104.467712,
				-127.741394,
				99.8696136
			],
			"rotation": [
				-6.10354363e-08,
				-0.838712573,
				-7.2945987e-08,
				0.54457438
			],
			"mesh": 0
		},
		{
			"name": "FoliageInstancedStaticMeshComponent_0:289",
			"translation": [
				103.836548,
				-127.741394,
				100.769844
			],
			"rotation": [
				-8.91826417e-08,
				-0.998387039,
				-3.30589991e-08,
				0.0567743927
			],
			"mesh": 0
		},
		{
			"name": "FoliageInstancedStaticMeshComponent_0:290",
			"translation": [
				103.612823,
				-127.741394,
				101.736679
			],
			"rotation": [
				-1.71766263e-08,
				-0.461574376,
				-9.3548941e-08,
				0.887101531
			],
			"mesh": 0
		},
		{
			"name": "FoliageInstancedStaticMeshComponent_0:291",
			"translation": [
				103.614777,
				-127.741394,
				101.422394
			],
			"rotation": [
				-5.20137711e-08,
				-0.768692672,
				-7.96304533e-08,
				0.639618337
			],
			"mesh": 0
		},
		{
			"name": "FoliageInstancedStaticMeshComponent_0:292",
			"translation": [
				103.790192,
				-127.741394,
				99.4311676
			],
			"rotation": [
				-6.24985432e-08,
				-0.849556923,
				-7.16963982e-08,
				0.527496934
			],
			"mesh": 0
		},
		{
			"name": "FoliageInstancedStaticMeshComponent_0:293",
			"translation": [
				103.894478,
				-127.741394,
				98.8616257
			],
			"rotation": [
				-4.28433822e-09,
				-0.33654049,
				-9.50162402e-08,
				0.941668987
			],
			"mesh": 0
		},
		{
			"name": "FoliageInstancedStaticMeshComponent_0:294",
			"translation": [
				120.289604,
				-127.741402,
				107.330544
			],
			"rotation": [
				-6.63084023e-08,
				-0.87700969,
				-6.81882497e-08,
				0.480472654
			],
			"mesh": 0
		},
		{
			"name": "FoliageInstancedStaticMeshComponent_0:295",
			"translation": [
				120.143387,
				-127.741402,
				106.916649
			],
			"rotation": [
				-9.5089554e-08,
				-0.962131619,
				-2.10197304e-09,
				-0.272585243
			],
			"mesh": 0
		},
		{
			"name": "FoliageInstancedStaticMeshComponent_0:296",
			"translation": [
				119.626335,
				-127.741402,
				106.324478
			],
			"rotation": [
				-9.49323891e-08,
				-0.935974538,
				5.85512527e-09,
				-0.352067739
			],
			"mesh": 0
		},
		{
			"name": "FoliageInstancedStaticMeshComponent_0:297",
			"translation": [
				118.963364,
				-127.741402,
				106.284271
			],
			"rotation": [
				9.03220467e-08,
				0.815663755,
				-2.9805534e-08,
				0.578526258
			],
			"mesh": 0
		},
		{
			"name": "FoliageInstancedStaticMeshComponent_0:298",
			"translation": [
				118.492065,
				-127.741402,
				106.203453
			],
			"rotation": [
				8.23595414e-08,
				0.680756748,
				-4.75746518e-08,
				0.732509553
			],
			"mesh": 0
		},
		{
			"name": "FoliageInstancedStaticMeshComponent_0:299",
			"translation": [
				118.430107,
				-127.741402,
				106.375191
			],
			"rotation": [
				-7.02361049e-08,
				-0.903963983,
				-6.41352713e-08,
				0.427608877
			],
			"mesh": 0
		},
		{
			"name": "FoliageInstancedStaticMeshComponent_0:300",
			"translation": [
				118.654411,
				-127.741402,
				106.707954
			],
			"rotation": [
				5.66822358e-08,
				0.333736449,
				-7.63777948e-08,
				0.942666531
			],
			"mesh": 0
		},
		{
			"name": "FoliageInstancedStaticMeshComponent_0:301",
			"translation": [
				118.603477,
				-127.741402,
				106.740425
			],
			"rotation": [
				-9.18175331e-08,
				-0.999415874,
				-2.48189771e-08,
				-0.0341754369
			],
			"mesh": 0
		},
		{
			"name": "FoliageInstancedStaticMeshComponent_0:302",
			"translation": [
				118.081879,
				-127.741402,
				106.489159
			],
			"rotation": [
				6.54139427e-08,
				0.444132984,
				-6.90467772e-08,
				0.895960867
			],
			"mesh": 0
		},
		{
			"name": "FoliageInstancedStaticMeshComponent_0:303",
			"translation": [
				118.011436,
				-127.741402,
				106.394081
			],
			"rotation": [
				-2.53771528e-08,
				-0.538169146,
				-9.16648304e-08,
				0.842836857
			],
			"mesh": 0
		},
		{
			"name": "FoliageInstancedStaticMeshComponent_0:304",
			"translation": [
				117.95536,
				-127.741402,
				107.186607
			],
			"rotation": [
				1.53801327e-08,
				-0.135346636,
				-9.38610327e-08,
				0.990798295
			],
			"mesh": 0
		},
		{
			"name": "FoliageInstancedStaticMeshComponent_0:305",
			"translation": [
				118.032959,
				-127.741402,
				107.542244
			],
			"rotation": [
				5.92128444e-08,
				0.365175575,
				-7.44330748e-08,
				0.93093878
			],
			"mesh": 0
		},
		{
			"name": "FoliageInstancedStaticMeshComponent_0:306",
			"translation": [
				118.003876,
				-127.741402,
				107.712128
			],
			"rotation": [
				-5.80493413e-08,
				-0.816109538,
				-7.53439835e-08,
				0.577897251
			],
			"mesh": 0
		},
		{
			"name": "FoliageInstancedStaticMeshComponent_0:307",
			"translation": [
				121.041481,
				-127.741402,
				107.652672
			],
			"rotation": [
				8.63224443e-08,
				0.744177699,
				-3.99359337e-08,
				0.667981803
			],
			"mesh": 0
		},
		{
			"name": "FoliageInstancedStaticMeshComponent_0:308",
			"translation": [
				117.595322,
				-127.741402,
				108.160439
			],
			"rotation": [
				-9.12839084e-08,
				-0.999909341,
				-2.67150106e-08,
				-0.0134722805
			],
			"mesh": 0
		},
		{
			"name": "FoliageInstancedStaticMeshComponent_0:309",
			"translation": [
				119.919617,
				-127.741402,
				108.465088
			],
			"rotation": [
				3.20608144e-08,
				0.0456194058,
				-8.9546333e-08,
				0.998958886
			],
			"mesh": 0
		},
		{
			"name": "FoliageInstancedStaticMeshComponent_0:310",
			"translation": [
				120.398331,
				-127.741402,
				109.577599
			],
			"rotation": [
				9.12942468e-08,
				0.835089445,
				-2.66796292e-08,
				0.550114214
			],
			"mesh": 0
		},
		{
			"name": "FoliageInstancedStaticMeshComponent_0:311",
			"translation": [
				119.376999,
				-127.741402,
				110.303833
			],
			"rotation": [
				-9.41171336e-08,
				-0.903469622,
				1.37261127e-08,
				-0.428652108
			],
			"mesh": 0
		},
		{
			"name": "FoliageInstancedStaticMeshComponent_0:312",
			"translation": [
				119.198227,
				-127.741402,
				109.993423
			],
			"rotation": [
				-9.3544827e-08,
				-0.886990845,
				1.71990511e-08,
				-0.461787015
			],
			"mesh": 0
		},
		{
			"name": "FoliageInstancedStaticMeshComponent_0:313",
			"translation": [
				118.600105,
				-127.741402,
				109.616669
			],
			"rotation": [
				2.98015586e-08,
				0.020514071,
				-9.03233683e-08,
				0.999789655
			],
			"mesh": 0
		},
		{
			"name": "FoliageInstancedStaticMeshComponent_0:314",
			"translation": [
				118.007446,
				-127.741402,
				108.723923
			],
			"rotation": [
				-9.16732432e-08,
				-0.99959594,
				-2.53467629e-08,
				-0.0284255687
			],
			"mesh": 0
		},
		{
			"name": "FoliageInstancedStaticMeshComponent_0:315",
			"translation": [
				118.686012,
				-127.741402,
				106.970215
			],
			"rotation": [
				-9.19866707e-08,
				-0.999156117,
				-2.41845708e-08,
				-0.0410735831
			],
			"mesh": 0
		},
		{
			"name": "FoliageInstancedStaticMeshComponent_0:316",
			"translation": [
				119.013779,
				-127.741402,
				105.851234
			],
			"rotation": [
				-8.25819484e-08,
				-0.975690603,
				-4.7187541e-08,
				0.219152674
			],
			"mesh": 0
		},
		{
			"name": "FoliageInstancedStaticMeshComponent_0:317",
			"translation": [
				119.967842,
				-127.741402,
				106.068512
			],
			"rotation": [
				3.16393467e-09,
				-0.261821836,
				-9.50601589e-08,
				0.965116322
			],
			"mesh": 0
		},
		{
			"name": "FoliageInstancedStaticMeshComponent_0:318",
			"translation": [
				120.122353,
				-127.741402,
				106.40065
			],
			"rotation": [
				-6.99957923e-08,
				-0.902358651,
				-6.43974403e-08,
				0.430985928
			],
			"mesh": 0
		},
		{
			"name": "FoliageInstancedStaticMeshComponent_0:319",
			"translation": [
				120.202858,
				-127.741402,
				106.740028
			],
			"rotation": [
				2.90558209e-08,
				0.0122700529,
				-9.05660045e-08,
				0.999924719
			],
			"mesh": 0
		},
		{
			"name": "FoliageInstancedStaticMeshComponent_0:320",
			"translation": [
				120.336197,
				-127.741402,
				106.512108
			],
			"rotation": [
				5.39827383e-08,
				0.300641656,
				-7.83090428e-08,
				0.953737199
			],
			"mesh": 0
		},
		{
			"name": "FoliageInstancedStaticMeshComponent_0:321",
			"translation": [
				121.165581,
				-127.741402,
				106.669273
			],
			"rotation": [
				1.32254891e-08,
				-0.158012927,
				-9.41887919e-08,
				0.987437069
			],
			"mesh": 0
		},
		{
			"name": "FoliageInstancedStaticMeshComponent_0:322",
			"translation": [
				120.921539,
				-127.741402,
				106.763931
			],
			"rotation": [
				4.62383021e-08,
				0.207959756,
				-8.31171647e-08,
				0.978137493
			],
			"mesh": 0
		},
		{
			"name": "FoliageInstancedStaticMeshComponent_0:323",
			"translation": [
				121.212334,
				-127.741402,
				107.071999
			],
			"rotation": [
				-9.28915966e-08,
				-0.996669233,
				-2.04351007e-08,
				-0.0815504268
			],
			"mesh": 0
		},
		{
			"name": "FoliageInstancedStaticMeshComponent_0:324",
			"translation": [
				120.584587,
				-127.741402,
				108.625259
			],
			"rotation": [
				-2.31375648e-08,
				-0.517486274,
				-9.22555969e-08,
				0.855691493
			],
			"mesh": 0
		},
		{
			"name": "FoliageInstancedStaticMeshComponent_0:325",
			"translation": [
				121.335167,
				-127.741402,
				108.166206
			],
			"rotation": [
				-5.49468098e-08,
				-0.792007804,
				-7.76356188e-08,
				0.610511005
			],
			"mesh": 0
		}
	],
	"samplers": [
		{
			"minFilter": 9987,
			"magFilter": 9729
		}
	],
	"scenes": [
		{
			"name": "Leuven_Krakauplein",
			"nodes": [
				0
			]
		}
	],
	"textures": [
		{
			"name": "grass",
			"sampler": 0,
			"source": 0
		}
	]
}