{
	"asset":
	{
		"version": "2.0",
		"generator": "Unreal Engine 5.7.4"
	},
	"scene": 0,
	"accessors": [
		{
			"bufferView": 0,
			"count": 108,
			"type": "SCALAR",
			"componentType": 5121
		},
		{
			"bufferView": 1,
			"count": 38,
			"type": "VEC3",
			"componentType": 5126,
			"min": [
				-0.28885743,
				0,
				-0.629170239
			],
			"max": [
				0.205579832,
				0,
				0.466735154
			]
		},
		{
			"bufferView": 2,
			"count": 38,
			"type": "VEC3",
			"componentType": 5126
		},
		{
			"bufferView": 3,
			"count": 38,
			"type": "VEC4",
			"componentType": 5126
		},
		{
			"bufferView": 4,
			"count": 38,
			"type": "VEC2",
			"componentType": 5126
		},
		{
			"bufferView": 5,
			"count": 648,
			"type": "SCALAR",
			"componentType": 5121
		},
		{
			"bufferView": 6,
			"count": 220,
			"type": "VEC3",
			"componentType": 5126,
			"min": [
				-0.403698653,
				0.0282630529,
				-0.000926836103
			],
			"max": [
				-0.0112593835,
				0.162400886,
				0.000573163852
			]
		},
		{
			"bufferView": 7,
			"count": 220,
			"type": "VEC3",
			"componentType": 5126
		},
		{
			"bufferView": 8,
			"count": 220,
			"type": "VEC4",
			"componentType": 5126
		},
		{
			"bufferView": 9,
			"count": 220,
			"type": "VEC2",
			"componentType": 5126
		},
		{
			"bufferView": 10,
			"count": 2616,
			"type": "SCALAR",
			"componentType": 5123
		},
		{
			"bufferView": 11,
			"count": 876,
			"type": "VEC3",
			"componentType": 5126,
			"min": [
				-0.421116948,
				-0.0898430422,
				0.000373163872
			],
			"max": [
				0.653754592,
				0.155685365,
				0.000573163852
			]
		},
		{
			"bufferView": 12,
			"count": 876,
			"type": "VEC3",
			"componentType": 5126
		},
		{
			"bufferView": 13,
			"count": 876,
			"type": "VEC4",
			"componentType": 5126
		},
		{
			"bufferView": 14,
			"count": 876,
			"type": "VEC2",
			"componentType": 5126
		},
		{
			"bufferView": 15,
			"count": 1320,
			"type": "SCALAR",
			"componentType": 5123
		},
		{
			"bufferView": 16,
			"count": 444,
			"type": "VEC3",
			"componentType": 5126,
			"min": [
				-0.463587701,
				-0.111341186,
				-0.000926836103
			],
			"max": [
				-0.092087552,
				0.144259527,
				0.000573163852
			]
		},
		{
			"bufferView": 17,
			"count": 444,
			"type": "VEC3",
			"componentType": 5126
		},
		{
			"bufferView": 18,
			"count": 444,
			"type": "VEC4",
			"componentType": 5126
		},
		{
			"bufferView": 19,
			"count": 444,
			"type": "VEC2",
			"componentType": 5126
		},
		{
			"bufferView": 20,
			"count": 12,
			"type": "SCALAR",
			"componentType": 5121
		},
		{
			"bufferView": 21,
			"count": 8,
			"type": "VEC3",
			"componentType": 5126,
			"min": [
				0.622636199,
				-0.0843527764,
				-0
			],
			"max": [
				0.652940512,
				-0.0390629917,
				-0
			]
		},
		{
			"bufferView": 22,
			"count": 8,
			"type": "VEC3",
			"componentType": 5126
		},
		{
			"bufferView": 23,
			"count": 8,
			"type": "VEC4",
			"componentType": 5126
		},
		{
			"bufferView": 24,
			"count": 8,
			"type": "VEC2",
			"componentType": 5126
		},
		{
			"bufferView": 25,
			"count": 36,
			"type": "SCALAR",
			"componentType": 5121
		},
		{
			"bufferView": 26,
			"count": 20,
			"type": "VEC3",
			"componentType": 5126,
			"min": [
				0.202237844,
				-0.136592209,
				7.31638793e-05
			],
			"max": [
				0.25523001,
				-0.0934370607,
				0.000573163852
			]
		},
		{
			"bufferView": 27,
			"count": 20,
			"type": "VEC3",
			"componentType": 5126
		},
		{
			"bufferView": 28,
			"count": 20,
			"type": "VEC4",
			"componentType": 5126
		},
		{
			"bufferView": 29,
			"count": 20,
			"type": "VEC2",
			"componentType": 5126
		},
		{
			"bufferView": 30,
			"count": 36,
			"type": "SCALAR",
			"componentType": 5121
		},
		{
			"bufferView": 31,
			"count": 20,
			"type": "VEC3",
			"componentType": 5126,
			"min": [
				0.228241041,
				-0.179297268,
				7.31638793e-05
			],
			"max": [
				0.28123337,
				-0.136142105,
				0.000573163852
			]
		},
		{
			"bufferView": 32,
			"count": 20,
			"type": "VEC3",
			"componentType": 5126
		},
		{
			"bufferView": 33,
			"count": 20,
			"type": "VEC4",
			"componentType": 5126
		},
		{
			"bufferView": 34,
			"count": 20,
			"type": "VEC2",
			"componentType": 5126
		},
		{
			"bufferView": 35,
			"count": 36,
			"type": "SCALAR",
			"componentType": 5121
		},
		{
			"bufferView": 36,
			"count": 20,
			"type": "VEC3",
			"componentType": 5126,
			"min": [
				0.306192845,
				0.0893867537,
				7.31638793e-05
			],
			"max": [
				0.349232614,
				0.14252086,
				0.000573163852
			]
		},
		{
			"bufferView": 37,
			"count": 20,
			"type": "VEC3",
			"componentType": 5126
		},
		{
			"bufferView": 38,
			"count": 20,
			"type": "VEC4",
			"componentType": 5126
		},
		{
			"bufferView": 39,
			"count": 20,
			"type": "VEC2",
			"componentType": 5126
		},
		{
			"bufferView": 40,
			"count": 948,
			"type": "SCALAR",
			"componentType": 5123
		},
		{
			"bufferView": 41,
			"count": 320,
			"type": "VEC3",
			"componentType": 5126,
			"min": [
				0.0291184988,
				0.0543696284,
				-0.000926836103
			],
			"max": [
				0.177346647,
				0.145226568,
				0.000573163852
			]
		},
		{
			"bufferView": 42,
			"count": 320,
			"type": "VEC3",
			"componentType": 5126
		},
		{
			"bufferView": 43,
			"count": 320,
			"type": "VEC4",
			"componentType": 5126
		},
		{
			"bufferView": 44,
			"count": 320,
			"type": "VEC2",
			"componentType": 5126
		},
		{
			"bufferView": 45,
			"count": 36,
			"type": "SCALAR",
			"componentType": 5121
		},
		{
			"bufferView": 46,
			"count": 20,
			"type": "VEC3",
			"componentType": 5126,
			"min": [
				0.221011803,
				0.0372399688,
				7.31638793e-05
			],
			"max": [
				0.264051586,
				0.0903740898,
				0.000573163852
			]
		},
		{
			"bufferView": 47,
			"count": 20,
			"type": "VEC3",
			"componentType": 5126
		},
		{
			"bufferView": 48,
			"count": 20,
			"type": "VEC4",
			"componentType": 5126
		},
		{
			"bufferView": 49,
			"count": 20,
			"type": "VEC2",
			"componentType": 5126
		},
		{
			"bufferView": 50,
			"count": 36,
			"type": "SCALAR",
			"componentType": 5121
		},
		{
			"bufferView": 51,
			"count": 20,
			"type": "VEC3",
			"componentType": 5126,
			"min": [
				0.21523948,
				-0.157944754,
				7.31638793e-05
			],
			"max": [
				0.26823166,
				-0.114789575,
				0.000573163852
			]
		},
		{
			"bufferView": 52,
			"count": 20,
			"type": "VEC3",
			"componentType": 5126
		},
		{
			"bufferView": 53,
			"count": 20,
			"type": "VEC4",
			"componentType": 5126
		},
		{
			"bufferView": 54,
			"count": 20,
			"type": "VEC2",
			"componentType": 5126
		},
		{
			"bufferView": 55,
			"count": 36,
			"type": "SCALAR",
			"componentType": 5121
		},
		{
			"bufferView": 56,
			"count": 20,
			"type": "VEC3",
			"componentType": 5126,
			"min": [
				0.263602287,
				0.0633134544,
				7.31638793e-05
			],
			"max": [
				0.306642056,
				0.116447583,
				0.000573163852
			]
		},
		{
			"bufferView": 57,
			"count": 20,
			"type": "VEC3",
			"componentType": 5126
		},
		{
			"bufferView": 58,
			"count": 20,
			"type": "VEC4",
			"componentType": 5126
		},
		{
			"bufferView": 59,
			"count": 20,
			"type": "VEC2",
			"componentType": 5126
		},
		{
			"bufferView": 60,
			"count": 12,
			"type": "SCALAR",
			"componentType": 5121
		},
		{
			"bufferView": 61,
			"count": 8,
			"type": "VEC3",
			"componentType": 5126,
			"min": [
				0.596744657,
				-0.393079221,
				-0
			],
			"max": [
				0.646730661,
				-0.387136787,
				-0
			]
		},
		{
			"bufferView": 62,
			"count": 8,
			"type": "VEC3",
			"componentType": 5126
		},
		{
			"bufferView": 63,
			"count": 8,
			"type": "VEC4",
			"componentType": 5126
		},
		{
			"bufferView": 64,
			"count": 8,
			"type": "VEC2",
			"componentType": 5126
		},
		{
			"bufferView": 65,
			"count": 12,
			"type": "SCALAR",
			"componentType": 5121
		},
		{
			"bufferView": 66,
			"count": 8,
			"type": "VEC3",
			"componentType": 5126,
			"min": [
				0.580684602,
				-0.341662347,
				-0
			],
			"max": [
				0.625875175,
				-0.311316669,
				-0
			]
		},
		{
			"bufferView": 67,
			"count": 8,
			"type": "VEC3",
			"componentType": 5126
		},
		{
			"bufferView": 68,
			"count": 8,
			"type": "VEC4",
			"componentType": 5126
		},
		{
			"bufferView": 69,
			"count": 8,
			"type": "VEC2",
			"componentType": 5126
		},
		{
			"bufferView": 70,
			"count": 12,
			"type": "SCALAR",
			"componentType": 5121
		},
		{
			"bufferView": 71,
			"count": 8,
			"type": "VEC3",
			"componentType": 5126,
			"min": [
				0.643931508,
				-0.071316123,
				-0
			],
			"max": [
				0.674235821,
				-0.0260263383,
				-0
			]
		},
		{
			"bufferView": 72,
			"count": 8,
			"type": "VEC3",
			"componentType": 5126
		},
		{
			"bufferView": 73,
			"count": 8,
			"type": "VEC4",
			"componentType": 5126
		},
		{
			"bufferView": 74,
			"count": 8,
			"type": "VEC2",
			"componentType": 5126
		},
		{
			"bufferView": 75,
			"count": 12,
			"type": "SCALAR",
			"componentType": 5121
		},
		{
			"bufferView": 76,
			"count": 8,
			"type": "VEC3",
			"componentType": 5126,
			"min": [
				0.596301079,
				-0.368013442,
				-0
			],
			"max": [
				0.646287143,
				-0.362071037,
				-0
			]
		},
		{
			"bufferView": 77,
			"count": 8,
			"type": "VEC3",
			"componentType": 5126
		},
		{
			"bufferView": 78,
			"count": 8,
			"type": "VEC4",
			"componentType": 5126
		},
		{
			"bufferView": 79,
			"count": 8,
			"type": "VEC2",
			"componentType": 5126
		},
		{
			"bufferView": 80,
			"count": 12,
			"type": "SCALAR",
			"componentType": 5121
		},
		{
			"bufferView": 81,
			"count": 8,
			"type": "VEC3",
			"componentType": 5126,
			"min": [
				0.558750272,
				-0.123462684,
				-0
			],
			"max": [
				0.589054585,
				-0.07817287,
				-0
			]
		},
		{
			"bufferView": 82,
			"count": 8,
			"type": "VEC3",
			"componentType": 5126
		},
		{
			"bufferView": 83,
			"count": 8,
			"type": "VEC4",
			"componentType": 5126
		},
		{
			"bufferView": 84,
			"count": 8,
			"type": "VEC2",
			"componentType": 5126
		},
		{
			"bufferView": 85,
			"count": 1104,
			"type": "SCALAR",
			"componentType": 5123
		},
		{
			"bufferView": 86,
			"count": 372,
			"type": "VEC3",
			"componentType": 5126,
			"min": [
				0.0349494927,
				-0.319414347,
				-0.000926836103
			],
			"max": [
				0.244936436,
				-0.0381528661,
				0.000573163852
			]
		},
		{
			"bufferView": 87,
			"count": 372,
			"type": "VEC3",
			"componentType": 5126
		},
		{
			"bufferView": 88,
			"count": 372,
			"type": "VEC4",
			"componentType": 5126
		},
		{
			"bufferView": 89,
			"count": 372,
			"type": "VEC2",
			"componentType": 5126
		},
		{
			"bufferView": 90,
			"count": 12,
			"type": "SCALAR",
			"componentType": 5121
		},
		{
			"bufferView": 91,
			"count": 8,
			"type": "VEC3",
			"componentType": 5126,
			"min": [
				0.593687236,
				-0.363014251,
				-0
			],
			"max": [
				0.638877809,
				-0.332668573,
				-0
			]
		},
		{
			"bufferView": 92,
			"count": 8,
			"type": "VEC3",
			"componentType": 5126
		},
		{
			"bufferView": 93,
			"count": 8,
			"type": "VEC4",
			"componentType": 5126
		},
		{
			"bufferView": 94,
			"count": 8,
			"type": "VEC2",
			"componentType": 5126
		},
		{
			"bufferView": 95,
			"count": 876,
			"type": "SCALAR",
			"componentType": 5123
		},
		{
			"bufferView": 96,
			"count": 296,
			"type": "VEC3",
			"componentType": 5126,
			"min": [
				-0.050831601,
				-0.152050853,
				-0.000926836103
			],
			"max": [
				-0.0155662149,
				-0.116225183,
				0.000573163852
			]
		},
		{
			"bufferView": 97,
			"count": 296,
			"type": "VEC3",
			"componentType": 5126
		},
		{
			"bufferView": 98,
			"count": 296,
			"type": "VEC4",
			"componentType": 5126
		},
		{
			"bufferView": 99,
			"count": 296,
			"type": "VEC2",
			"componentType": 5126
		},
		{
			"bufferView": 100,
			"count": 384,
			"type": "SCALAR",
			"componentType": 5121
		},
		{
			"bufferView": 101,
			"count": 132,
			"type": "VEC3",
			"componentType": 5126,
			"min": [
				0.497474313,
				-0.094021678,
				-0
			],
			"max": [
				0.688760459,
				0.0905963108,
				-0
			]
		},
		{
			"bufferView": 102,
			"count": 132,
			"type": "VEC3",
			"componentType": 5126
		},
		{
			"bufferView": 103,
			"count": 132,
			"type": "VEC4",
			"componentType": 5126
		},
		{
			"bufferView": 104,
			"count": 132,
			"type": "VEC2",
			"componentType": 5126
		},
		{
			"bufferView": 105,
			"count": 12,
			"type": "SCALAR",
			"componentType": 5121
		},
		{
			"bufferView": 106,
			"count": 8,
			"type": "VEC3",
			"componentType": 5126,
			"min": [
				0.597187161,
				-0.418085724,
				-0
			],
			"max": [
				0.647173166,
				-0.41214332,
				-0
			]
		},
		{
			"bufferView": 107,
			"count": 8,
			"type": "VEC3",
			"componentType": 5126
		},
		{
			"bufferView": 108,
			"count": 8,
			"type": "VEC4",
			"componentType": 5126
		},
		{
			"bufferView": 109,
			"count": 8,
			"type": "VEC2",
			"componentType": 5126
		},
		{
			"bufferView": 110,
			"count": 12,
			"type": "SCALAR",
			"componentType": 5121
		},
		{
			"bufferView": 111,
			"count": 8,
			"type": "VEC3",
			"componentType": 5126,
			"min": [
				0.541679561,
				-0.277604848,
				-0
			],
			"max": [
				0.586870074,
				-0.247259229,
				-0
			]
		},
		{
			"bufferView": 112,
			"count": 8,
			"type": "VEC3",
			"componentType": 5126
		},
		{
			"bufferView": 113,
			"count": 8,
			"type": "VEC4",
			"componentType": 5126
		},
		{
			"bufferView": 114,
			"count": 8,
			"type": "VEC2",
			"componentType": 5126
		},
		{
			"bufferView": 115,
			"count": 12,
			"type": "SCALAR",
			"componentType": 5121
		},
		{
			"bufferView": 116,
			"count": 8,
			"type": "VEC3",
			"componentType": 5126,
			"min": [
				0.515675783,
				-0.234900147,
				-0
			],
			"max": [
				0.560866296,
				-0.204554528,
				-0
			]
		},
		{
			"bufferView": 117,
			"count": 8,
			"type": "VEC3",
			"componentType": 5126
		},
		{
			"bufferView": 118,
			"count": 8,
			"type": "VEC4",
			"componentType": 5126
		},
		{
			"bufferView": 119,
			"count": 8,
			"type": "VEC2",
			"componentType": 5126
		},
		{
			"bufferView": 120,
			"count": 12,
			"type": "SCALAR",
			"componentType": 5121
		},
		{
			"bufferView": 121,
			"count": 8,
			"type": "VEC3",
			"componentType": 5126,
			"min": [
				0.567682922,
				-0.320309818,
				-0
			],
			"max": [
				0.612873495,
				-0.289964169,
				-0
			]
		},
		{
			"bufferView": 122,
			"count": 8,
			"type": "VEC3",
			"componentType": 5126
		},
		{
			"bufferView": 123,
			"count": 8,
			"type": "VEC4",
			"componentType": 5126
		},
		{
			"bufferView": 124,
			"count": 8,
			"type": "VEC2",
			"componentType": 5126
		},
		{
			"bufferView": 125,
			"count": 216,
			"type": "SCALAR",
			"componentType": 5121
		},
		{
			"bufferView": 126,
			"count": 76,
			"type": "VEC3",
			"componentType": 5126,
			"min": [
				0.276843399,
				-0.115708672,
				-0
			],
			"max": [
				0.387931138,
				0.0163543206,
				-0
			]
		},
		{
			"bufferView": 127,
			"count": 76,
			"type": "VEC3",
			"componentType": 5126
		},
		{
			"bufferView": 128,
			"count": 76,
			"type": "VEC4",
			"componentType": 5126
		},
		{
			"bufferView": 129,
			"count": 76,
			"type": "VEC2",
			"componentType": 5126
		},
		{
			"bufferView": 130,
			"count": 12,
			"type": "SCALAR",
			"componentType": 5121
		},
		{
			"bufferView": 131,
			"count": 8,
			"type": "VEC3",
			"componentType": 5126,
			"min": [
				0.55468148,
				-0.298957199,
				-0
			],
			"max": [
				0.599871993,
				-0.26861158,
				-0
			]
		},
		{
			"bufferView": 132,
			"count": 8,
			"type": "VEC3",
			"componentType": 5126
		},
		{
			"bufferView": 133,
			"count": 8,
			"type": "VEC4",
			"componentType": 5126
		},
		{
			"bufferView": 134,
			"count": 8,
			"type": "VEC2",
			"componentType": 5126
		},
		{
			"bufferView": 135,
			"count": 36,
			"type": "SCALAR",
			"componentType": 5121
		},
		{
			"bufferView": 136,
			"count": 20,
			"type": "VEC3",
			"componentType": 5126,
			"min": [
				0.176234201,
				-0.093887426,
				7.31638793e-05
			],
			"max": [
				0.229226381,
				-0.0507322885,
				0.000573163852
			]
		},
		{
			"bufferView": 137,
			"count": 20,
			"type": "VEC3",
			"componentType": 5126
		},
		{
			"bufferView": 138,
			"count": 20,
			"type": "VEC4",
			"componentType": 5126
		},
		{
			"bufferView": 139,
			"count": 20,
			"type": "VEC2",
			"componentType": 5126
		},
		{
			"bufferView": 140,
			"count": 18,
			"type": "SCALAR",
			"componentType": 5121
		},
		{
			"bufferView": 141,
			"count": 10,
			"type": "VEC3",
			"componentType": 5126,
			"min": [
				0.596286952,
				-0.363014668,
				-0
			],
			"max": [
				0.64593327,
				-0.333551049,
				-0
			]
		},
		{
			"bufferView": 142,
			"count": 10,
			"type": "VEC3",
			"componentType": 5126
		},
		{
			"bufferView": 143,
			"count": 10,
			"type": "VEC4",
			"componentType": 5126
		},
		{
			"bufferView": 144,
			"count": 10,
			"type": "VEC2",
			"componentType": 5126
		},
		{
			"bufferView": 145,
			"count": 36,
			"type": "SCALAR",
			"componentType": 5121
		},
		{
			"bufferView": 146,
			"count": 20,
			"type": "VEC3",
			"componentType": 5126,
			"min": [
				0.242306888,
				0.0502769947,
				7.31638793e-05
			],
			"max": [
				0.285346687,
				0.103411116,
				0.000573163852
			]
		},
		{
			"bufferView": 147,
			"count": 20,
			"type": "VEC3",
			"componentType": 5126
		},
		{
			"bufferView": 148,
			"count": 20,
			"type": "VEC4",
			"componentType": 5126
		},
		{
			"bufferView": 149,
			"count": 20,
			"type": "VEC2",
			"componentType": 5126
		},
		{
			"bufferView": 150,
			"count": 1392,
			"type": "SCALAR",
			"componentType": 5123
		},
		{
			"bufferView": 151,
			"count": 468,
			"type": "VEC3",
			"componentType": 5126,
			"min": [
				-0.0744175687,
				-0.0884554461,
				-0.000926836103
			],
			"max": [
				0.00689933775,
				0.0167165566,
				0.000573163852
			]
		},
		{
			"bufferView": 152,
			"count": 468,
			"type": "VEC3",
			"componentType": 5126
		},
		{
			"bufferView": 153,
			"count": 468,
			"type": "VEC4",
			"componentType": 5126
		},
		{
			"bufferView": 154,
			"count": 468,
			"type": "VEC2",
			"componentType": 5126
		},
		{
			"bufferView": 155,
			"count": 36,
			"type": "SCALAR",
			"componentType": 5121
		},
		{
			"bufferView": 156,
			"count": 20,
			"type": "VEC3",
			"componentType": 5126,
			"min": [
				0.254776001,
				-0.254936069,
				7.31638793e-05
			],
			"max": [
				0.305023879,
				-0.234037608,
				0.000573163852
			]
		},
		{
			"bufferView": 157,
			"count": 20,
			"type": "VEC3",
			"componentType": 5126
		},
		{
			"bufferView": 158,
			"count": 20,
			"type": "VEC4",
			"componentType": 5126
		},
		{
			"bufferView": 159,
			"count": 20,
			"type": "VEC2",
			"componentType": 5126
		},
		{
			"bufferView": 160,
			"count": 1872,
			"type": "SCALAR",
			"componentType": 5123
		},
		{
			"bufferView": 161,
			"count": 628,
			"type": "VEC3",
			"componentType": 5126,
			"min": [
				0.204669222,
				-0.495467812,
				-0
			],
			"max": [
				0.647936225,
				-0.138957009,
				-0
			]
		},
		{
			"bufferView": 162,
			"count": 628,
			"type": "VEC3",
			"componentType": 5126
		},
		{
			"bufferView": 163,
			"count": 628,
			"type": "VEC4",
			"componentType": 5126
		},
		{
			"bufferView": 164,
			"count": 628,
			"type": "VEC2",
			"componentType": 5126
		},
		{
			"bufferView": 165,
			"count": 36,
			"type": "SCALAR",
			"componentType": 5121
		},
		{
			"bufferView": 166,
			"count": 20,
			"type": "VEC3",
			"componentType": 5126,
			"min": [
				0.241243288,
				-0.200649425,
				7.31638793e-05
			],
			"max": [
				0.294235528,
				-0.157494262,
				0.000573163852
			]
		},
		{
			"bufferView": 167,
			"count": 20,
			"type": "VEC3",
			"componentType": 5126
		},
		{
			"bufferView": 168,
			"count": 20,
			"type": "VEC4",
			"componentType": 5126
		},
		{
			"bufferView": 169,
			"count": 20,
			"type": "VEC2",
			"componentType": 5126
		},
		{
			"bufferView": 170,
			"count": 12,
			"type": "SCALAR",
			"componentType": 5121
		},
		{
			"bufferView": 171,
			"count": 8,
			"type": "VEC3",
			"componentType": 5126,
			"min": [
				0.66522634,
				-0.0582788065,
				-0
			],
			"max": [
				0.695530713,
				-0.0129890293,
				-0
			]
		},
		{
			"bufferView": 172,
			"count": 8,
			"type": "VEC3",
			"componentType": 5126
		},
		{
			"bufferView": 173,
			"count": 8,
			"type": "VEC4",
			"componentType": 5126
		},
		{
			"bufferView": 174,
			"count": 8,
			"type": "VEC2",
			"componentType": 5126
		},
		{
			"bufferView": 175,
			"count": 12,
			"type": "SCALAR",
			"componentType": 5121
		},
		{
			"bufferView": 176,
			"count": 8,
			"type": "VEC3",
			"componentType": 5126,
			"min": [
				0.528677523,
				-0.256252557,
				-0
			],
			"max": [
				0.573868096,
				-0.225906938,
				-0
			]
		},
		{
			"bufferView": 177,
			"count": 8,
			"type": "VEC3",
			"componentType": 5126
		},
		{
			"bufferView": 178,
			"count": 8,
			"type": "VEC4",
			"componentType": 5126
		},
		{
			"bufferView": 179,
			"count": 8,
			"type": "VEC2",
			"componentType": 5126
		},
		{
			"bufferView": 180,
			"count": 1344,
			"type": "SCALAR",
			"componentType": 5123
		},
		{
			"bufferView": 181,
			"count": 452,
			"type": "VEC3",
			"componentType": 5126,
			"min": [
				0.131800845,
				-0.176781759,
				-0.000926836103
			],
			"max": [
				0.649288476,
				0.0417021848,
				0.000573163852
			]
		},
		{
			"bufferView": 182,
			"count": 452,
			"type": "VEC3",
			"componentType": 5126
		},
		{
			"bufferView": 183,
			"count": 452,
			"type": "VEC4",
			"componentType": 5126
		},
		{
			"bufferView": 184,
			"count": 452,
			"type": "VEC2",
			"componentType": 5126
		},
		{
			"bufferView": 185,
			"count": 36,
			"type": "SCALAR",
			"componentType": 5121
		},
		{
			"bufferView": 186,
			"count": 20,
			"type": "VEC3",
			"componentType": 5126,
			"min": [
				0.254333258,
				-0.22992982,
				7.31638793e-05
			],
			"max": [
				0.304581076,
				-0.209031314,
				0.000573163852
			]
		},
		{
			"bufferView": 187,
			"count": 20,
			"type": "VEC3",
			"componentType": 5126
		},
		{
			"bufferView": 188,
			"count": 20,
			"type": "VEC4",
			"componentType": 5126
		},
		{
			"bufferView": 189,
			"count": 20,
			"type": "VEC2",
			"componentType": 5126
		},
		{
			"bufferView": 190,
			"count": 12,
			"type": "SCALAR",
			"componentType": 5121
		},
		{
			"bufferView": 191,
			"count": 8,
			"type": "VEC3",
			"componentType": 5126,
			"min": [
				0.601314962,
				-0.097346887,
				-0
			],
			"max": [
				0.631619334,
				-0.0520570874,
				-0
			]
		},
		{
			"bufferView": 192,
			"count": 8,
			"type": "VEC3",
			"componentType": 5126
		},
		{
			"bufferView": 193,
			"count": 8,
			"type": "VEC4",
			"componentType": 5126
		},
		{
			"bufferView": 194,
			"count": 8,
			"type": "VEC2",
			"componentType": 5126
		},
		{
			"bufferView": 195,
			"count": 444,
			"type": "SCALAR",
			"componentType": 5121
		},
		{
			"bufferView": 196,
			"count": 152,
			"type": "VEC3",
			"componentType": 5126,
			"min": [
				0.184575573,
				-0.0708431453,
				-0.000926836103
			],
			"max": [
				0.651967585,
				0.0769650564,
				0.000573163852
			]
		},
		{
			"bufferView": 197,
			"count": 152,
			"type": "VEC3",
			"componentType": 5126
		},
		{
			"bufferView": 198,
			"count": 152,
			"type": "VEC4",
			"componentType": 5126
		},
		{
			"bufferView": 199,
			"count": 152,
			"type": "VEC2",
			"componentType": 5126
		},
		{
			"bufferView": 200,
			"count": 36,
			"type": "SCALAR",
			"componentType": 5121
		},
		{
			"bufferView": 201,
			"count": 20,
			"type": "VEC3",
			"componentType": 5126,
			"min": [
				0.189235911,
				-0.115239903,
				7.31638793e-05
			],
			"max": [
				0.242228076,
				-0.0720847473,
				0.000573163852
			]
		},
		{
			"bufferView": 202,
			"count": 20,
			"type": "VEC3",
			"componentType": 5126
		},
		{
			"bufferView": 203,
			"count": 20,
			"type": "VEC4",
			"componentType": 5126
		},
		{
			"bufferView": 204,
			"count": 20,
			"type": "VEC2",
			"componentType": 5126
		},
		{
			"bufferView": 205,
			"count": 36,
			"type": "SCALAR",
			"componentType": 5121
		},
		{
			"bufferView": 206,
			"count": 20,
			"type": "VEC3",
			"componentType": 5126,
			"min": [
				0.284897685,
				0.0763499215,
				7.31638793e-05
			],
			"max": [
				0.327937454,
				0.129484043,
				0.000573163852
			]
		},
		{
			"bufferView": 207,
			"count": 20,
			"type": "VEC3",
			"componentType": 5126
		},
		{
			"bufferView": 208,
			"count": 20,
			"type": "VEC4",
			"componentType": 5126
		},
		{
			"bufferView": 209,
			"count": 20,
			"type": "VEC2",
			"componentType": 5126
		},
		{
			"bufferView": 210,
			"count": 12,
			"type": "SCALAR",
			"componentType": 5121
		},
		{
			"bufferView": 211,
			"count": 8,
			"type": "VEC3",
			"componentType": 5126,
			"min": [
				0.580032587,
				-0.110404782,
				-0
			],
			"max": [
				0.610336959,
				-0.065114975,
				-0
			]
		},
		{
			"bufferView": 212,
			"count": 8,
			"type": "VEC3",
			"componentType": 5126
		},
		{
			"bufferView": 213,
			"count": 8,
			"type": "VEC4",
			"componentType": 5126
		},
		{
			"bufferView": 214,
			"count": 8,
			"type": "VEC2",
			"componentType": 5126
		}
	],
	"buffers": [
		{
			"uri": "Krakauplein_Parking.bin",
			"byteLength": 259280
		}
	],
	"bufferViews": [
		{
			"buffer": 0,
			"byteLength": 108,
			"target": 34963
		},
		{
			"buffer": 0,
			"byteLength": 456,
			"byteOffset": 108,
			"target": 34962
		},
		{
			"buffer": 0,
			"byteLength": 456,
			"byteOffset": 564,
			"target": 34962
		},
		{
			"buffer": 0,
			"byteLength": 608,
			"byteOffset": 1020,
			"target": 34962
		},
		{
			"buffer": 0,
			"byteLength": 304,
			"byteOffset": 1628,
			"target": 34962
		},
		{
			"buffer": 0,
			"byteLength": 648,
			"byteOffset": 1932,
			"target": 34963
		},
		{
			"buffer": 0,
			"byteLength": 2640,
			"byteOffset": 2580,
			"target": 34962
		},
		{
			"buffer": 0,
			"byteLength": 2640,
			"byteOffset": 5220,
			"target": 34962
		},
		{
			"buffer": 0,
			"byteLength": 3520,
			"byteOffset": 7860,
			"target": 34962
		},
		{
			"buffer": 0,
			"byteLength": 1760,
			"byteOffset": 11380,
			"target": 34962
		},
		{
			"buffer": 0,
			"byteLength": 5232,
			"byteOffset": 13140,
			"target": 34963
		},
		{
			"buffer": 0,
			"byteLength": 10512,
			"byteOffset": 18372,
			"target": 34962
		},
		{
			"buffer": 0,
			"byteLength": 10512,
			"byteOffset": 28884,
			"target": 34962
		},
		{
			"buffer": 0,
			"byteLength": 14016,
			"byteOffset": 39396,
			"target": 34962
		},
		{
			"buffer": 0,
			"byteLength": 7008,
			"byteOffset": 53412,
			"target": 34962
		},
		{
			"buffer": 0,
			"byteLength": 2640,
			"byteOffset": 60420,
			"target": 34963
		},
		{
			"buffer": 0,
			"byteLength": 5328,
			"byteOffset": 63060,
			"target": 34962
		},
		{
			"buffer": 0,
			"byteLength": 5328,
			"byteOffset": 68388,
			"target": 34962
		},
		{
			"buffer": 0,
			"byteLength": 7104,
			"byteOffset": 73716,
			"target": 34962
		},
		{
			"buffer": 0,
			"byteLength": 3552,
			"byteOffset": 80820,
			"target": 34962
		},
		{
			"buffer": 0,
			"byteLength": 12,
			"byteOffset": 84372,
			"target": 34963
		},
		{
			"buffer": 0,
			"byteLength": 96,
			"byteOffset": 84384,
			"target": 34962
		},
		{
			"buffer": 0,
			"byteLength": 96,
			"byteOffset": 84480,
			"target": 34962
		},
		{
			"buffer": 0,
			"byteLength": 128,
			"byteOffset": 84576,
			"target": 34962
		},
		{
			"buffer": 0,
			"byteLength": 64,
			"byteOffset": 84704,
			"target": 34962
		},
		{
			"buffer": 0,
			"byteLength": 36,
			"byteOffset": 84768,
			"target": 34963
		},
		{
			"buffer": 0,
			"byteLength": 240,
			"byteOffset": 84804,
			"target": 34962
		},
		{
			"buffer": 0,
			"byteLength": 240,
			"byteOffset": 85044,
			"target": 34962
		},
		{
			"buffer": 0,
			"byteLength": 320,
			"byteOffset": 85284,
			"target": 34962
		},
		{
			"buffer": 0,
			"byteLength": 160,
			"byteOffset": 85604,
			"target": 34962
		},
		{
			"buffer": 0,
			"byteLength": 36,
			"byteOffset": 85764,
			"target": 34963
		},
		{
			"buffer": 0,
			"byteLength": 240,
			"byteOffset": 85800,
			"target": 34962
		},
		{
			"buffer": 0,
			"byteLength": 240,
			"byteOffset": 86040,
			"target": 34962
		},
		{
			"buffer": 0,
			"byteLength": 320,
			"byteOffset": 86280,
			"target": 34962
		},
		{
			"buffer": 0,
			"byteLength": 160,
			"byteOffset": 86600,
			"target": 34962
		},
		{
			"buffer": 0,
			"byteLength": 36,
			"byteOffset": 86760,
			"target": 34963
		},
		{
			"buffer": 0,
			"byteLength": 240,
			"byteOffset": 86796,
			"target": 34962
		},
		{
			"buffer": 0,
			"byteLength": 240,
			"byteOffset": 87036,
			"target": 34962
		},
		{
			"buffer": 0,
			"byteLength": 320,
			"byteOffset": 87276,
			"target": 34962
		},
		{
			"buffer": 0,
			"byteLength": 160,
			"byteOffset": 87596,
			"target": 34962
		},
		{
			"buffer": 0,
			"byteLength": 1896,
			"byteOffset": 87756,
			"target": 34963
		},
		{
			"buffer": 0,
			"byteLength": 3840,
			"byteOffset": 89652,
			"target": 34962
		},
		{
			"buffer": 0,
			"byteLength": 3840,
			"byteOffset": 93492,
			"target": 34962
		},
		{
			"buffer": 0,
			"byteLength": 5120,
			"byteOffset": 97332,
			"target": 34962
		},
		{
			"buffer": 0,
			"byteLength": 2560,
			"byteOffset": 102452,
			"target": 34962
		},
		{
			"buffer": 0,
			"byteLength": 36,
			"byteOffset": 105012,
			"target": 34963
		},
		{
			"buffer": 0,
			"byteLength": 240,
			"byteOffset": 105048,
			"target": 34962
		},
		{
			"buffer": 0,
			"byteLength": 240,
			"byteOffset": 105288,
			"target": 34962
		},
		{
			"buffer": 0,
			"byteLength": 320,
			"byteOffset": 105528,
			"target": 34962
		},
		{
			"buffer": 0,
			"byteLength": 160,
			"byteOffset": 105848,
			"target": 34962
		},
		{
			"buffer": 0,
			"byteLength": 36,
			"byteOffset": 106008,
			"target": 34963
		},
		{
			"buffer": 0,
			"byteLength": 240,
			"byteOffset": 106044,
			"target": 34962
		},
		{
			"buffer": 0,
			"byteLength": 240,
			"byteOffset": 106284,
			"target": 34962
		},
		{
			"buffer": 0,
			"byteLength": 320,
			"byteOffset": 106524,
			"target": 34962
		},
		{
			"buffer": 0,
			"byteLength": 160,
			"byteOffset": 106844,
			"target": 34962
		},
		{
			"buffer": 0,
			"byteLength": 36,
			"byteOffset": 107004,
			"target": 34963
		},
		{
			"buffer": 0,
			"byteLength": 240,
			"byteOffset": 107040,
			"target": 34962
		},
		{
			"buffer": 0,
			"byteLength": 240,
			"byteOffset": 107280,
			"target": 34962
		},
		{
			"buffer": 0,
			"byteLength": 320,
			"byteOffset": 107520,
			"target": 34962
		},
		{
			"buffer": 0,
			"byteLength": 160,
			"byteOffset": 107840,
			"target": 34962
		},
		{
			"buffer": 0,
			"byteLength": 12,
			"byteOffset": 108000,
			"target": 34963
		},
		{
			"buffer": 0,
			"byteLength": 96,
			"byteOffset": 108012,
			"target": 34962
		},
		{
			"buffer": 0,
			"byteLength": 96,
			"byteOffset": 108108,
			"target": 34962
		},
		{
			"buffer": 0,
			"byteLength": 128,
			"byteOffset": 108204,
			"target": 34962
		},
		{
			"buffer": 0,
			"byteLength": 64,
			"byteOffset": 108332,
			"target": 34962
		},
		{
			"buffer": 0,
			"byteLength": 12,
			"byteOffset": 108396,
			"target": 34963
		},
		{
			"buffer": 0,
			"byteLength": 96,
			"byteOffset": 108408,
			"target": 34962
		},
		{
			"buffer": 0,
			"byteLength": 96,
			"byteOffset": 108504,
			"target": 34962
		},
		{
			"buffer": 0,
			"byteLength": 128,
			"byteOffset": 108600,
			"target": 34962
		},
		{
			"buffer": 0,
			"byteLength": 64,
			"byteOffset": 108728,
			"target": 34962
		},
		{
			"buffer": 0,
			"byteLength": 12,
			"byteOffset": 108792,
			"target": 34963
		},
		{
			"buffer": 0,
			"byteLength": 96,
			"byteOffset": 108804,
			"target": 34962
		},
		{
			"buffer": 0,
			"byteLength": 96,
			"byteOffset": 108900,
			"target": 34962
		},
		{
			"buffer": 0,
			"byteLength": 128,
			"byteOffset": 108996,
			"target": 34962
		},
		{
			"buffer": 0,
			"byteLength": 64,
			"byteOffset": 109124,
			"target": 34962
		},
		{
			"buffer": 0,
			"byteLength": 12,
			"byteOffset": 109188,
			"target": 34963
		},
		{
			"buffer": 0,
			"byteLength": 96,
			"byteOffset": 109200,
			"target": 34962
		},
		{
			"buffer": 0,
			"byteLength": 96,
			"byteOffset": 109296,
			"target": 34962
		},
		{
			"buffer": 0,
			"byteLength": 128,
			"byteOffset": 109392,
			"target": 34962
		},
		{
			"buffer": 0,
			"byteLength": 64,
			"byteOffset": 109520,
			"target": 34962
		},
		{
			"buffer": 0,
			"byteLength": 12,
			"byteOffset": 109584,
			"target": 34963
		},
		{
			"buffer": 0,
			"byteLength": 96,
			"byteOffset": 109596,
			"target": 34962
		},
		{
			"buffer": 0,
			"byteLength": 96,
			"byteOffset": 109692,
			"target": 34962
		},
		{
			"buffer": 0,
			"byteLength": 128,
			"byteOffset": 109788,
			"target": 34962
		},
		{
			"buffer": 0,
			"byteLength": 64,
			"byteOffset": 109916,
			"target": 34962
		},
		{
			"buffer": 0,
			"byteLength": 2208,
			"byteOffset": 109980,
			"target": 34963
		},
		{
			"buffer": 0,
			"byteLength": 4464,
			"byteOffset": 112188,
			"target": 34962
		},
		{
			"buffer": 0,
			"byteLength": 4464,
			"byteOffset": 116652,
			"target": 34962
		},
		{
			"buffer": 0,
			"byteLength": 5952,
			"byteOffset": 121116,
			"target": 34962
		},
		{
			"buffer": 0,
			"byteLength": 2976,
			"byteOffset": 127068,
			"target": 34962
		},
		{
			"buffer": 0,
			"byteLength": 12,
			"byteOffset": 130044,
			"target": 34963
		},
		{
			"buffer": 0,
			"byteLength": 96,
			"byteOffset": 130056,
			"target": 34962
		},
		{
			"buffer": 0,
			"byteLength": 96,
			"byteOffset": 130152,
			"target": 34962
		},
		{
			"buffer": 0,
			"byteLength": 128,
			"byteOffset": 130248,
			"target": 34962
		},
		{
			"buffer": 0,
			"byteLength": 64,
			"byteOffset": 130376,
			"target": 34962
		},
		{
			"buffer": 0,
			"byteLength": 1752,
			"byteOffset": 130440,
			"target": 34963
		},
		{
			"buffer": 0,
			"byteLength": 3552,
			"byteOffset": 132192,
			"target": 34962
		},
		{
			"buffer": 0,
			"byteLength": 3552,
			"byteOffset": 135744,
			"target": 34962
		},
		{
			"buffer": 0,
			"byteLength": 4736,
			"byteOffset": 139296,
			"target": 34962
		},
		{
			"buffer": 0,
			"byteLength": 2368,
			"byteOffset": 144032,
			"target": 34962
		},
		{
			"buffer": 0,
			"byteLength": 384,
			"byteOffset": 146400,
			"target": 34963
		},
		{
			"buffer": 0,
			"byteLength": 1584,
			"byteOffset": 146784,
			"target": 34962
		},
		{
			"buffer": 0,
			"byteLength": 1584,
			"byteOffset": 148368,
			"target": 34962
		},
		{
			"buffer": 0,
			"byteLength": 2112,
			"byteOffset": 149952,
			"target": 34962
		},
		{
			"buffer": 0,
			"byteLength": 1056,
			"byteOffset": 152064,
			"target": 34962
		},
		{
			"buffer": 0,
			"byteLength": 12,
			"byteOffset": 153120,
			"target": 34963
		},
		{
			"buffer": 0,
			"byteLength": 96,
			"byteOffset": 153132,
			"target": 34962
		},
		{
			"buffer": 0,
			"byteLength": 96,
			"byteOffset": 153228,
			"target": 34962
		},
		{
			"buffer": 0,
			"byteLength": 128,
			"byteOffset": 153324,
			"target": 34962
		},
		{
			"buffer": 0,
			"byteLength": 64,
			"byteOffset": 153452,
			"target": 34962
		},
		{
			"buffer": 0,
			"byteLength": 12,
			"byteOffset": 153516,
			"target": 34963
		},
		{
			"buffer": 0,
			"byteLength": 96,
			"byteOffset": 153528,
			"target": 34962
		},
		{
			"buffer": 0,
			"byteLength": 96,
			"byteOffset": 153624,
			"target": 34962
		},
		{
			"buffer": 0,
			"byteLength": 128,
			"byteOffset": 153720,
			"target": 34962
		},
		{
			"buffer": 0,
			"byteLength": 64,
			"byteOffset": 153848,
			"target": 34962
		},
		{
			"buffer": 0,
			"byteLength": 12,
			"byteOffset": 153912,
			"target": 34963
		},
		{
			"buffer": 0,
			"byteLength": 96,
			"byteOffset": 153924,
			"target": 34962
		},
		{
			"buffer": 0,
			"byteLength": 96,
			"byteOffset": 154020,
			"target": 34962
		},
		{
			"buffer": 0,
			"byteLength": 128,
			"byteOffset": 154116,
			"target": 34962
		},
		{
			"buffer": 0,
			"byteLength": 64,
			"byteOffset": 154244,
			"target": 34962
		},
		{
			"buffer": 0,
			"byteLength": 12,
			"byteOffset": 154308,
			"target": 34963
		},
		{
			"buffer": 0,
			"byteLength": 96,
			"byteOffset": 154320,
			"target": 34962
		},
		{
			"buffer": 0,
			"byteLength": 96,
			"byteOffset": 154416,
			"target": 34962
		},
		{
			"buffer": 0,
			"byteLength": 128,
			"byteOffset": 154512,
			"target": 34962
		},
		{
			"buffer": 0,
			"byteLength": 64,
			"byteOffset": 154640,
			"target": 34962
		},
		{
			"buffer": 0,
			"byteLength": 216,
			"byteOffset": 154704,
			"target": 34963
		},
		{
			"buffer": 0,
			"byteLength": 912,
			"byteOffset": 154920,
			"target": 34962
		},
		{
			"buffer": 0,
			"byteLength": 912,
			"byteOffset": 155832,
			"target": 34962
		},
		{
			"buffer": 0,
			"byteLength": 1216,
			"byteOffset": 156744,
			"target": 34962
		},
		{
			"buffer": 0,
			"byteLength": 608,
			"byteOffset": 157960,
			"target": 34962
		},
		{
			"buffer": 0,
			"byteLength": 12,
			"byteOffset": 158568,
			"target": 34963
		},
		{
			"buffer": 0,
			"byteLength": 96,
			"byteOffset": 158580,
			"target": 34962
		},
		{
			"buffer": 0,
			"byteLength": 96,
			"byteOffset": 158676,
			"target": 34962
		},
		{
			"buffer": 0,
			"byteLength": 128,
			"byteOffset": 158772,
			"target": 34962
		},
		{
			"buffer": 0,
			"byteLength": 64,
			"byteOffset": 158900,
			"target": 34962
		},
		{
			"buffer": 0,
			"byteLength": 36,
			"byteOffset": 158964,
			"target": 34963
		},
		{
			"buffer": 0,
			"byteLength": 240,
			"byteOffset": 159000,
			"target": 34962
		},
		{
			"buffer": 0,
			"byteLength": 240,
			"byteOffset": 159240,
			"target": 34962
		},
		{
			"buffer": 0,
			"byteLength": 320,
			"byteOffset": 159480,
			"target": 34962
		},
		{
			"buffer": 0,
			"byteLength": 160,
			"byteOffset": 159800,
			"target": 34962
		},
		{
			"buffer": 0,
			"byteLength": 18,
			"byteOffset": 159960,
			"target": 34963
		},
		{
			"buffer": 0,
			"byteLength": 120,
			"byteOffset": 159980,
			"target": 34962
		},
		{
			"buffer": 0,
			"byteLength": 120,
			"byteOffset": 160100,
			"target": 34962
		},
		{
			"buffer": 0,
			"byteLength": 160,
			"byteOffset": 160220,
			"target": 34962
		},
		{
			"buffer": 0,
			"byteLength": 80,
			"byteOffset": 160380,
			"target": 34962
		},
		{
			"buffer": 0,
			"byteLength": 36,
			"byteOffset": 160460,
			"target": 34963
		},
		{
			"buffer": 0,
			"byteLength": 240,
			"byteOffset": 160496,
			"target": 34962
		},
		{
			"buffer": 0,
			"byteLength": 240,
			"byteOffset": 160736,
			"target": 34962
		},
		{
			"buffer": 0,
			"byteLength": 320,
			"byteOffset": 160976,
			"target": 34962
		},
		{
			"buffer": 0,
			"byteLength": 160,
			"byteOffset": 161296,
			"target": 34962
		},
		{
			"buffer": 0,
			"byteLength": 2784,
			"byteOffset": 161456,
			"target": 34963
		},
		{
			"buffer": 0,
			"byteLength": 5616,
			"byteOffset": 164240,
			"target": 34962
		},
		{
			"buffer": 0,
			"byteLength": 5616,
			"byteOffset": 169856,
			"target": 34962
		},
		{
			"buffer": 0,
			"byteLength": 7488,
			"byteOffset": 175472,
			"target": 34962
		},
		{
			"buffer": 0,
			"byteLength": 3744,
			"byteOffset": 182960,
			"target": 34962
		},
		{
			"buffer": 0,
			"byteLength": 36,
			"byteOffset": 186704,
			"target": 34963
		},
		{
			"buffer": 0,
			"byteLength": 240,
			"byteOffset": 186740,
			"target": 34962
		},
		{
			"buffer": 0,
			"byteLength": 240,
			"byteOffset": 186980,
			"target": 34962
		},
		{
			"buffer": 0,
			"byteLength": 320,
			"byteOffset": 187220,
			"target": 34962
		},
		{
			"buffer": 0,
			"byteLength": 160,
			"byteOffset": 187540,
			"target": 34962
		},
		{
			"buffer": 0,
			"byteLength": 3744,
			"byteOffset": 187700,
			"target": 34963
		},
		{
			"buffer": 0,
			"byteLength": 7536,
			"byteOffset": 191444,
			"target": 34962
		},
		{
			"buffer": 0,
			"byteLength": 7536,
			"byteOffset": 198980,
			"target": 34962
		},
		{
			"buffer": 0,
			"byteLength": 10048,
			"byteOffset": 206516,
			"target": 34962
		},
		{
			"buffer": 0,
			"byteLength": 5024,
			"byteOffset": 216564,
			"target": 34962
		},
		{
			"buffer": 0,
			"byteLength": 36,
			"byteOffset": 221588,
			"target": 34963
		},
		{
			"buffer": 0,
			"byteLength": 240,
			"byteOffset": 221624,
			"target": 34962
		},
		{
			"buffer": 0,
			"byteLength": 240,
			"byteOffset": 221864,
			"target": 34962
		},
		{
			"buffer": 0,
			"byteLength": 320,
			"byteOffset": 222104,
			"target": 34962
		},
		{
			"buffer": 0,
			"byteLength": 160,
			"byteOffset": 222424,
			"target": 34962
		},
		{
			"buffer": 0,
			"byteLength": 12,
			"byteOffset": 222584,
			"target": 34963
		},
		{
			"buffer": 0,
			"byteLength": 96,
			"byteOffset": 222596,
			"target": 34962
		},
		{
			"buffer": 0,
			"byteLength": 96,
			"byteOffset": 222692,
			"target": 34962
		},
		{
			"buffer": 0,
			"byteLength": 128,
			"byteOffset": 222788,
			"target": 34962
		},
		{
			"buffer": 0,
			"byteLength": 64,
			"byteOffset": 222916,
			"target": 34962
		},
		{
			"buffer": 0,
			"byteLength": 12,
			"byteOffset": 222980,
			"target": 34963
		},
		{
			"buffer": 0,
			"byteLength": 96,
			"byteOffset": 222992,
			"target": 34962
		},
		{
			"buffer": 0,
			"byteLength": 96,
			"byteOffset": 223088,
			"target": 34962
		},
		{
			"buffer": 0,
			"byteLength": 128,
			"byteOffset": 223184,
			"target": 34962
		},
		{
			"buffer": 0,
			"byteLength": 64,
			"byteOffset": 223312,
			"target": 34962
		},
		{
			"buffer": 0,
			"byteLength": 2688,
			"byteOffset": 223376,
			"target": 34963
		},
		{
			"buffer": 0,
			"byteLength": 5424,
			"byteOffset": 226064,
			"target": 34962
		},
		{
			"buffer": 0,
			"byteLength": 5424,
			"byteOffset": 231488,
			"target": 34962
		},
		{
			"buffer": 0,
			"byteLength": 7232,
			"byteOffset": 236912,
			"target": 34962
		},
		{
			"buffer": 0,
			"byteLength": 3616,
			"byteOffset": 244144,
			"target": 34962
		},
		{
			"buffer": 0,
			"byteLength": 36,
			"byteOffset": 247760,
			"target": 34963
		},
		{
			"buffer": 0,
			"byteLength": 240,
			"byteOffset": 247796,
			"target": 34962
		},
		{
			"buffer": 0,
			"byteLength": 240,
			"byteOffset": 248036,
			"target": 34962
		},
		{
			"buffer": 0,
			"byteLength": 320,
			"byteOffset": 248276,
			"target": 34962
		},
		{
			"buffer": 0,
			"byteLength": 160,
			"byteOffset": 248596,
			"target": 34962
		},
		{
			"buffer": 0,
			"byteLength": 12,
			"byteOffset": 248756,
			"target": 34963
		},
		{
			"buffer": 0,
			"byteLength": 96,
			"byteOffset": 248768,
			"target": 34962
		},
		{
			"buffer": 0,
			"byteLength": 96,
			"byteOffset": 248864,
			"target": 34962
		},
		{
			"buffer": 0,
			"byteLength": 128,
			"byteOffset": 248960,
			"target": 34962
		},
		{
			"buffer": 0,
			"byteLength": 64,
			"byteOffset": 249088,
			"target": 34962
		},
		{
			"buffer": 0,
			"byteLength": 444,
			"byteOffset": 249152,
			"target": 34963
		},
		{
			"buffer": 0,
			"byteLength": 1824,
			"byteOffset": 249596,
			"target": 34962
		},
		{
			"buffer": 0,
			"byteLength": 1824,
			"byteOffset": 251420,
			"target": 34962
		},
		{
			"buffer": 0,
			"byteLength": 2432,
			"byteOffset": 253244,
			"target": 34962
		},
		{
			"buffer": 0,
			"byteLength": 1216,
			"byteOffset": 255676,
			"target": 34962
		},
		{
			"buffer": 0,
			"byteLength": 36,
			"byteOffset": 256892,
			"target": 34963
		},
		{
			"buffer": 0,
			"byteLength": 240,
			"byteOffset": 256928,
			"target": 34962
		},
		{
			"buffer": 0,
			"byteLength": 240,
			"byteOffset": 257168,
			"target": 34962
		},
		{
			"buffer": 0,
			"byteLength": 320,
			"byteOffset": 257408,
			"target": 34962
		},
		{
			"buffer": 0,
			"byteLength": 160,
			"byteOffset": 257728,
			"target": 34962
		},
		{
			"buffer": 0,
			"byteLength": 36,
			"byteOffset": 257888,
			"target": 34963
		},
		{
			"buffer": 0,
			"byteLength": 240,
			"byteOffset": 257924,
			"target": 34962
		},
		{
			"buffer": 0,
			"byteLength": 240,
			"byteOffset": 258164,
			"target": 34962
		},
		{
			"buffer": 0,
			"byteLength": 320,
			"byteOffset": 258404,
			"target": 34962
		},
		{
			"buffer": 0,
			"byteLength": 160,
			"byteOffset": 258724,
			"target": 34962
		},
		{
			"buffer": 0,
			"byteLength": 12,
			"byteOffset": 258884,
			"target": 34963
		},
		{
			"buffer": 0,
			"byteLength": 96,
			"byteOffset": 258896,
			"target": 34962
		},
		{
			"buffer": 0,
			"byteLength": 96,
			"byteOffset": 258992,
			"target": 34962
		},
		{
			"buffer": 0,
			"byteLength": 128,
			"byteOffset": 259088,
			"target": 34962
		},
		{
			"buffer": 0,
			"byteLength": 64,
			"byteOffset": 259216,
			"target": 34962
		}
	],
	"images": [
		{
			"uri": "plein_kleiklinkers_BaseColor.png"
		},
		{
			"uri": "groenvakken_2_BaseColor.png"
		},
		{
			"uri": "grasdallen_BaseColor.png"
		}
	],
	"materials": [
		{
			"name": "plein_kleiklinkers",
			"pbrMetallicRoughness":
			{
				"baseColorTexture":
				{
					"index": 0
				},
				"metallicFactor": 0,
				"roughnessFactor": 0.521568656
			},
			"doubleSided": true,
			"extensions":
			{
				"KHR_materials_specular":
				{
					"specularFactor": 0.121568635
				}
			}
		},
		{
			"name": "groenvakken_2",
			"pbrMetallicRoughness":
			{
				"baseColorTexture":
				{
					"index": 1
				},
				"metallicFactor": 0,
				"roughnessFactor": 0.521568656
			},
			"doubleSided": true,
			"extensions":
			{
				"KHR_materials_specular":
				{
					"specularFactor": 0.121568635
				}
			}
		},
		{
			"name": "shapefiles_new_001",
			"pbrMetallicRoughness":
			{
				"baseColorTexture":
				{
					"index": 2
				},
				"metallicFactor": 0,
				"roughnessFactor": 0.521568656
			},
			"doubleSided": true,
			"extensions":
			{
				"KHR_materials_specular":
				{
					"specularFactor": 0.121568635
				}
			}
		},
		{
			"name": "grasdallen",
			"pbrMetallicRoughness":
			{
				"baseColorTexture":
				{
					"index": 3
				},
				"metallicFactor": 0,
				"roughnessFactor": 0.521568656
			},
			"doubleSided": true,
			"extensions":
			{
				"KHR_materials_specular":
				{
					"specularFactor": 0.121568635
				}
			}
		}
	],
	"meshes": [
		{
			"name": "Plane",
			"primitives": [
				{
					"attributes":
					{
						"POSITION": 1,
						"NORMAL": 2,
						"TANGENT": 3,
						"TEXCOORD_0": 4
					},
					"indices": 0,
					"material": 0
				}
			]
		},
		{
			"name": "output_019",
			"primitives": [
				{
					"attributes":
					{
						"POSITION": 6,
						"NORMAL": 7,
						"TANGENT": 8,
						"TEXCOORD_0": 9
					},
					"indices": 5,
					"material": 1
				}
			]
		},
		{
			"name": "output_022",
			"primitives": [
				{
					"attributes":
					{
						"POSITION": 11,
						"NORMAL": 12,
						"TANGENT": 13,
						"TEXCOORD_0": 14
					},
					"indices": 10,
					"material": 0
				}
			]
		},
		{
			"name": "output_020",
			"primitives": [
				{
					"attributes":
					{
						"POSITION": 16,
						"NORMAL": 17,
						"TANGENT": 18,
						"TEXCOORD_0": 19
					},
					"indices": 15,
					"material": 1
				}
			]
		},
		{
			"name": "test_004",
			"primitives": [
				{
					"attributes":
					{
						"POSITION": 21,
						"NORMAL": 22,
						"TANGENT": 23,
						"TEXCOORD_0": 24
					},
					"indices": 20,
					"material": 2
				}
			]
		},
		{
			"name": "output_011",
			"primitives": [
				{
					"attributes":
					{
						"POSITION": 26,
						"NORMAL": 27,
						"TANGENT": 28,
						"TEXCOORD_0": 29
					},
					"indices": 25,
					"material": 3
				}
			]
		},
		{
			"name": "output_009",
			"primitives": [
				{
					"attributes":
					{
						"POSITION": 31,
						"NORMAL": 32,
						"TANGENT": 33,
						"TEXCOORD_0": 34
					},
					"indices": 30,
					"material": 3
				}
			]
		},
		{
			"name": "output_005",
			"primitives": [
				{
					"attributes":
					{
						"POSITION": 36,
						"NORMAL": 37,
						"TANGENT": 38,
						"TEXCOORD_0": 39
					},
					"indices": 35,
					"material": 3
				}
			]
		},
		{
			"name": "output_015",
			"primitives": [
				{
					"attributes":
					{
						"POSITION": 41,
						"NORMAL": 42,
						"TANGENT": 43,
						"TEXCOORD_0": 44
					},
					"indices": 40,
					"material": 1
				}
			]
		},
		{
			"name": "output_002",
			"primitives": [
				{
					"attributes":
					{
						"POSITION": 46,
						"NORMAL": 47,
						"TANGENT": 48,
						"TEXCOORD_0": 49
					},
					"indices": 45,
					"material": 3
				}
			]
		},
		{
			"name": "output_010",
			"primitives": [
				{
					"attributes":
					{
						"POSITION": 51,
						"NORMAL": 52,
						"TANGENT": 53,
						"TEXCOORD_0": 54
					},
					"indices": 50,
					"material": 3
				}
			]
		},
		{
			"name": "output_003",
			"primitives": [
				{
					"attributes":
					{
						"POSITION": 56,
						"NORMAL": 57,
						"TANGENT": 58,
						"TEXCOORD_0": 59
					},
					"indices": 55,
					"material": 3
				}
			]
		},
		{
			"name": "test_009",
			"primitives": [
				{
					"attributes":
					{
						"POSITION": 61,
						"NORMAL": 62,
						"TANGENT": 63,
						"TEXCOORD_0": 64
					},
					"indices": 60,
					"material": 2
				}
			]
		},
		{
			"name": "test_012",
			"primitives": [
				{
					"attributes":
					{
						"POSITION": 66,
						"NORMAL": 67,
						"TANGENT": 68,
						"TEXCOORD_0": 69
					},
					"indices": 65,
					"material": 2
				}
			]
		},
		{
			"name": "test_003",
			"primitives": [
				{
					"attributes":
					{
						"POSITION": 71,
						"NORMAL": 72,
						"TANGENT": 73,
						"TEXCOORD_0": 74
					},
					"indices": 70,
					"material": 2
				}
			]
		},
		{
			"name": "test_010",
			"primitives": [
				{
					"attributes":
					{
						"POSITION": 76,
						"NORMAL": 77,
						"TANGENT": 78,
						"TEXCOORD_0": 79
					},
					"indices": 75,
					"material": 2
				}
			]
		},
		{
			"name": "test_007",
			"primitives": [
				{
					"attributes":
					{
						"POSITION": 81,
						"NORMAL": 82,
						"TANGENT": 83,
						"TEXCOORD_0": 84
					},
					"indices": 80,
					"material": 2
				}
			]
		},
		{
			"name": "output_018",
			"primitives": [
				{
					"attributes":
					{
						"POSITION": 86,
						"NORMAL": 87,
						"TANGENT": 88,
						"TEXCOORD_0": 89
					},
					"indices": 85,
					"material": 1
				}
			]
		},
		{
			"name": "test_011",
			"primitives": [
				{
					"attributes":
					{
						"POSITION": 91,
						"NORMAL": 92,
						"TANGENT": 93,
						"TEXCOORD_0": 94
					},
					"indices": 90,
					"material": 2
				}
			]
		},
		{
			"name": "output_014",
			"primitives": [
				{
					"attributes":
					{
						"POSITION": 96,
						"NORMAL": 97,
						"TANGENT": 98,
						"TEXCOORD_0": 99
					},
					"indices": 95,
					"material": 1
				}
			]
		},
		{
			"name": "test_053",
			"primitives": [
				{
					"attributes":
					{
						"POSITION": 101,
						"NORMAL": 102,
						"TANGENT": 103,
						"TEXCOORD_0": 104
					},
					"indices": 100,
					"material": 2
				}
			]
		},
		{
			"name": "test_008",
			"primitives": [
				{
					"attributes":
					{
						"POSITION": 106,
						"NORMAL": 107,
						"TANGENT": 108,
						"TEXCOORD_0": 109
					},
					"indices": 105,
					"material": 2
				}
			]
		},
		{
			"name": "test_015",
			"primitives": [
				{
					"attributes":
					{
						"POSITION": 111,
						"NORMAL": 112,
						"TANGENT": 113,
						"TEXCOORD_0": 114
					},
					"indices": 110,
					"material": 2
				}
			]
		},
		{
			"name": "test_028",
			"primitives": [
				{
					"attributes":
					{
						"POSITION": 116,
						"NORMAL": 117,
						"TANGENT": 118,
						"TEXCOORD_0": 119
					},
					"indices": 115,
					"material": 2
				}
			]
		},
		{
			"name": "test_013",
			"primitives": [
				{
					"attributes":
					{
						"POSITION": 121,
						"NORMAL": 122,
						"TANGENT": 123,
						"TEXCOORD_0": 124
					},
					"indices": 120,
					"material": 2
				}
			]
		},
		{
			"name": "test_054",
			"primitives": [
				{
					"attributes":
					{
						"POSITION": 126,
						"NORMAL": 127,
						"TANGENT": 128,
						"TEXCOORD_0": 129
					},
					"indices": 125,
					"material": 2
				}
			]
		},
		{
			"name": "test_014",
			"primitives": [
				{
					"attributes":
					{
						"POSITION": 131,
						"NORMAL": 132,
						"TANGENT": 133,
						"TEXCOORD_0": 134
					},
					"indices": 130,
					"material": 2
				}
			]
		},
		{
			"name": "output_012",
			"primitives": [
				{
					"attributes":
					{
						"POSITION": 136,
						"NORMAL": 137,
						"TANGENT": 138,
						"TEXCOORD_0": 139
					},
					"indices": 135,
					"material": 3
				}
			]
		},
		{
			"name": "test_056",
			"primitives": [
				{
					"attributes":
					{
						"POSITION": 141,
						"NORMAL": 142,
						"TANGENT": 143,
						"TEXCOORD_0": 144
					},
					"indices": 140,
					"material": 2
				}
			]
		},
		{
			"name": "output_001",
			"primitives": [
				{
					"attributes":
					{
						"POSITION": 146,
						"NORMAL": 147,
						"TANGENT": 148,
						"TEXCOORD_0": 149
					},
					"indices": 145,
					"material": 3
				}
			]
		},
		{
			"name": "output_021",
			"primitives": [
				{
					"attributes":
					{
						"POSITION": 151,
						"NORMAL": 152,
						"TANGENT": 153,
						"TEXCOORD_0": 154
					},
					"indices": 150,
					"material": 1
				}
			]
		},
		{
			"name": "output_006",
			"primitives": [
				{
					"attributes":
					{
						"POSITION": 156,
						"NORMAL": 157,
						"TANGENT": 158,
						"TEXCOORD_0": 159
					},
					"indices": 155,
					"material": 3
				}
			]
		},
		{
			"name": "test_055",
			"primitives": [
				{
					"attributes":
					{
						"POSITION": 161,
						"NORMAL": 162,
						"TANGENT": 163,
						"TEXCOORD_0": 164
					},
					"indices": 160,
					"material": 2
				}
			]
		},
		{
			"name": "output_008",
			"primitives": [
				{
					"attributes":
					{
						"POSITION": 166,
						"NORMAL": 167,
						"TANGENT": 168,
						"TEXCOORD_0": 169
					},
					"indices": 165,
					"material": 3
				}
			]
		},
		{
			"name": "test_002",
			"primitives": [
				{
					"attributes":
					{
						"POSITION": 171,
						"NORMAL": 172,
						"TANGENT": 173,
						"TEXCOORD_0": 174
					},
					"indices": 170,
					"material": 2
				}
			]
		},
		{
			"name": "test_016",
			"primitives": [
				{
					"attributes":
					{
						"POSITION": 176,
						"NORMAL": 177,
						"TANGENT": 178,
						"TEXCOORD_0": 179
					},
					"indices": 175,
					"material": 2
				}
			]
		},
		{
			"name": "output_017",
			"primitives": [
				{
					"attributes":
					{
						"POSITION": 181,
						"NORMAL": 182,
						"TANGENT": 183,
						"TEXCOORD_0": 184
					},
					"indices": 180,
					"material": 1
				}
			]
		},
		{
			"name": "output_007",
			"primitives": [
				{
					"attributes":
					{
						"POSITION": 186,
						"NORMAL": 187,
						"TANGENT": 188,
						"TEXCOORD_0": 189
					},
					"indices": 185,
					"material": 3
				}
			]
		},
		{
			"name": "test_005",
			"primitives": [
				{
					"attributes":
					{
						"POSITION": 191,
						"NORMAL": 192,
						"TANGENT": 193,
						"TEXCOORD_0": 194
					},
					"indices": 190,
					"material": 2
				}
			]
		},
		{
			"name": "output_016",
			"primitives": [
				{
					"attributes":
					{
						"POSITION": 196,
						"NORMAL": 197,
						"TANGENT": 198,
						"TEXCOORD_0": 199
					},
					"indices": 195,
					"material": 1
				}
			]
		},
		{
			"name": "output_013",
			"primitives": [
				{
					"attributes":
					{
						"POSITION": 201,
						"NORMAL": 202,
						"TANGENT": 203,
						"TEXCOORD_0": 204
					},
					"indices": 200,
					"material": 3
				}
			]
		},
		{
			"name": "output_004",
			"primitives": [
				{
					"attributes":
					{
						"POSITION": 206,
						"NORMAL": 207,
						"TANGENT": 208,
						"TEXCOORD_0": 209
					},
					"indices": 205,
					"material": 3
				}
			]
		},
		{
			"name": "test_006",
			"primitives": [
				{
					"attributes":
					{
						"POSITION": 211,
						"NORMAL": 212,
						"TANGENT": 213,
						"TEXCOORD_0": 214
					},
					"indices": 210,
					"material": 2
				}
			]
		}
	],
	"nodes": [
		{
			"name": "Krakauplein_Parking",
			"translation": [
				43.5900002,
				0.170000002,
				77.8899994
			],
			"rotation": [
				0.000192010222,
				-0.993270814,
				0.00164690695,
				0.115803845
			],
			"children": [
				1,
				2,
				3,
				4,
				5,
				6,
				7,
				8,
				9,
				10,
				11,
				12,
				13,
				14,
				15,
				16,
				17,
				18,
				19,
				20,
				21,
				22,
				23,
				24,
				25,
				26,
				27,
				28,
				29,
				30,
				31,
				32,
				33,
				34,
				35,
				36,
				37,
				38,
				39,
				40,
				41,
				42,
				43
			]
		},
		{
			"name": "Plane",
			"translation": [
				-2.4414062e-06,
				-0.109999985,
				-2.6099987
			],
			"scale": [
				100,
				100,
				100
			],
			"mesh": 0
		},
		{
			"name": "output_018",
			"rotation": [
				0.531300843,
				0.466604203,
				-0.466604054,
				0.531300962
			],
			"scale": [
				100.000015,
				100.000015,
				100
			],
			"mesh": 1
		},
		{
			"name": "output_021",
			"rotation": [
				0.531300843,
				0.466604203,
				-0.466604054,
				0.531300962
			],
			"scale": [
				100.000015,
				100.000015,
				100
			],
			"mesh": 2
		},
		{
			"name": "output_019",
			"rotation": [
				0.531300843,
				0.466604203,
				-0.466604054,
				0.531300962
			],
			"scale": [
				100.000015,
				100.000015,
				100
			],
			"mesh": 3
		},
		{
			"name": "test_004",
			"translation": [
				11.5003443,
				-0.0400000103,
				35.9171295
			],
			"rotation": [
				0.531300962,
				0.466604143,
				-0.466604054,
				0.531300962
			],
			"scale": [
				100,
				100,
				100
			],
			"mesh": 4
		},
		{
			"name": "output_010",
			"rotation": [
				0.531300843,
				0.466604203,
				-0.466604054,
				0.531300962
			],
			"scale": [
				100.000015,
				100.000015,
				100
			],
			"mesh": 5
		},
		{
			"name": "output_008",
			"rotation": [
				0.531300843,
				0.466604203,
				-0.466604054,
				0.531300962
			],
			"scale": [
				100.000015,
				100.000015,
				100
			],
			"mesh": 6
		},
		{
			"name": "output_004",
			"rotation": [
				0.531300843,
				0.466604203,
				-0.466604054,
				0.531300962
			],
			"scale": [
				100.000015,
				100.000015,
				100
			],
			"mesh": 7
		},
		{
			"name": "output_014",
			"rotation": [
				0.531300843,
				0.466604203,
				-0.466604054,
				0.531300962
			],
			"scale": [
				100.000015,
				100.000015,
				100
			],
			"mesh": 8
		},
		{
			"name": "output",
			"rotation": [
				0.531300843,
				0.466604203,
				-0.466604054,
				0.531300962
			],
			"scale": [
				100.000015,
				100.000015,
				100
			],
			"mesh": 9
		},
		{
			"name": "output_009",
			"rotation": [
				0.531300843,
				0.466604203,
				-0.466604054,
				0.531300962
			],
			"scale": [
				100.000015,
				100.000015,
				100
			],
			"mesh": 10
		},
		{
			"name": "output_002",
			"rotation": [
				0.531300843,
				0.466604203,
				-0.466604054,
				0.531300962
			],
			"scale": [
				100.000015,
				100.000015,
				100
			],
			"mesh": 11
		},
		{
			"name": "test_009",
			"translation": [
				11.5003443,
				-0.0400000103,
				35.9171295
			],
			"rotation": [
				0.531300962,
				0.466604143,
				-0.466604054,
				0.531300962
			],
			"scale": [
				100,
				100,
				100
			],
			"mesh": 12
		},
		{
			"name": "test_012",
			"translation": [
				11.5003443,
				-0.0400000103,
				35.9171295
			],
			"rotation": [
				0.531300962,
				0.466604143,
				-0.466604054,
				0.531300962
			],
			"scale": [
				100,
				100,
				100
			],
			"mesh": 13
		},
		{
			"name": "test_003",
			"translation": [
				11.5003443,
				-0.0400000103,
				35.9171295
			],
			"rotation": [
				0.531300962,
				0.466604143,
				-0.466604054,
				0.531300962
			],
			"scale": [
				100,
				100,
				100
			],
			"mesh": 14
		},
		{
			"name": "test_010",
			"translation": [
				11.5003443,
				-0.0400000103,
				35.9171295
			],
			"rotation": [
				0.531300962,
				0.466604143,
				-0.466604054,
				0.531300962
			],
			"scale": [
				100,
				100,
				100
			],
			"mesh": 15
		},
		{
			"name": "test_007",
			"translation": [
				11.5003443,
				-0.0400000103,
				35.9171295
			],
			"rotation": [
				0.531300962,
				0.466604143,
				-0.466604054,
				0.531300962
			],
			"scale": [
				100,
				100,
				100
			],
			"mesh": 16
		},
		{
			"name": "output_017",
			"rotation": [
				0.531300843,
				0.466604203,
				-0.466604054,
				0.531300962
			],
			"scale": [
				100.000015,
				100.000015,
				100
			],
			"mesh": 17
		},
		{
			"name": "test_011",
			"translation": [
				11.5003443,
				-0.0400000103,
				35.9171295
			],
			"rotation": [
				0.531300962,
				0.466604143,
				-0.466604054,
				0.531300962
			],
			"scale": [
				100,
				100,
				100
			],
			"mesh": 18
		},
		{
			"name": "output_013",
			"rotation": [
				0.531300843,
				0.466604203,
				-0.466604054,
				0.531300962
			],
			"scale": [
				100.000015,
				100.000015,
				100
			],
			"mesh": 19
		},
		{
			"name": "test_053",
			"translation": [
				11.5003443,
				-0.0400000103,
				35.9171295
			],
			"rotation": [
				0.531300962,
				0.466604143,
				-0.466604054,
				0.531300962
			],
			"scale": [
				100,
				100,
				100
			],
			"mesh": 20
		},
		{
			"name": "test_008",
			"translation": [
				11.5003443,
				-0.0400000103,
				35.9171295
			],
			"rotation": [
				0.531300962,
				0.466604143,
				-0.466604054,
				0.531300962
			],
			"scale": [
				100,
				100,
				100
			],
			"mesh": 21
		},
		{
			"name": "test_015",
			"translation": [
				11.5003443,
				-0.0400000103,
				35.9171295
			],
			"rotation": [
				0.531300962,
				0.466604143,
				-0.466604054,
				0.531300962
			],
			"scale": [
				100,
				100,
				100
			],
			"mesh": 22
		},
		{
			"name": "test_028",
			"translation": [
				11.5003443,
				-0.0400000103,
				35.9171295
			],
			"rotation": [
				0.531300962,
				0.466604143,
				-0.466604054,
				0.531300962
			],
			"scale": [
				100,
				100,
				100
			],
			"mesh": 23
		},
		{
			"name": "test_013",
			"translation": [
				11.5003443,
				-0.0400000103,
				35.9171295
			],
			"rotation": [
				0.531300962,
				0.466604143,
				-0.466604054,
				0.531300962
			],
			"scale": [
				100,
				100,
				100
			],
			"mesh": 24
		},
		{
			"name": "test_054",
			"translation": [
				11.5003443,
				-0.0400000103,
				35.9171295
			],
			"rotation": [
				0.531300962,
				0.466604143,
				-0.466604054,
				0.531300962
			],
			"scale": [
				100,
				100,
				100
			],
			"mesh": 25
		},
		{
			"name": "test_014",
			"translation": [
				11.5003443,
				-0.0400000103,
				35.9171295
			],
			"rotation": [
				0.531300962,
				0.466604143,
				-0.466604054,
				0.531300962
			],
			"scale": [
				100,
				100,
				100
			],
			"mesh": 26
		},
		{
			"name": "output_011",
			"rotation": [
				0.531300843,
				0.466604203,
				-0.466604054,
				0.531300962
			],
			"scale": [
				100.000015,
				100.000015,
				100
			],
			"mesh": 27
		},
		{
			"name": "test_056",
			"translation": [
				11.5003443,
				-0.0400000103,
				35.9171295
			],
			"rotation": [
				0.531300962,
				0.466604143,
				-0.466604054,
				0.531300962
			],
			"scale": [
				100,
				100,
				100
			],
			"mesh": 28
		},
		{
			"name": "output_001",
			"rotation": [
				0.531300843,
				0.466604203,
				-0.466604054,
				0.531300962
			],
			"scale": [
				100.000015,
				100.000015,
				100
			],
			"mesh": 29
		},
		{
			"name": "output_020",
			"rotation": [
				0.531300843,
				0.466604203,
				-0.466604054,
				0.531300962
			],
			"scale": [
				100.000015,
				100.000015,
				100
			],
			"mesh": 30
		},
		{
			"name": "output_005",
			"rotation": [
				0.531300843,
				0.466604203,
				-0.466604054,
				0.531300962
			],
			"scale": [
				100.000015,
				100.000015,
				100
			],
			"mesh": 31
		},
		{
			"name": "test_055",
			"translation": [
				11.5003443,
				-0.0400000103,
				35.9171295
			],
			"rotation": [
				0.531300962,
				0.466604143,
				-0.466604054,
				0.531300962
			],
			"scale": [
				100,
				100,
				100
			],
			"mesh": 32
		},
		{
			"name": "output_007",
			"rotation": [
				0.531300843,
				0.466604203,
				-0.466604054,
				0.531300962
			],
			"scale": [
				100.000015,
				100.000015,
				100
			],
			"mesh": 33
		},
		{
			"name": "test_002",
			"translation": [
				11.5003443,
				-0.0400000103,
				35.9171295
			],
			"rotation": [
				0.531300962,
				0.466604143,
				-0.466604054,
				0.531300962
			],
			"scale": [
				100,
				100,
				100
			],
			"mesh": 34
		},
		{
			"name": "test_016",
			"translation": [
				11.5003443,
				-0.0400000103,
				35.9171295
			],
			"rotation": [
				0.531300962,
				0.466604143,
				-0.466604054,
				0.531300962
			],
			"scale": [
				100,
				100,
				100
			],
			"mesh": 35
		},
		{
			"name": "output_016",
			"rotation": [
				0.531300843,
				0.466604203,
				-0.466604054,
				0.531300962
			],
			"scale": [
				100.000015,
				100.000015,
				100
			],
			"mesh": 36
		},
		{
			"name": "output_006",
			"rotation": [
				0.531300843,
				0.466604203,
				-0.466604054,
				0.531300962
			],
			"scale": [
				100.000015,
				100.000015,
				100
			],
			"mesh": 37
		},
		{
			"name": "test_005",
			"translation": [
				11.5003443,
				-0.0400000103,
				35.9171295
			],
			"rotation": [
				0.531300962,
				0.466604143,
				-0.466604054,
				0.531300962
			],
			"scale": [
				100,
				100,
				100
			],
			"mesh": 38
		},
		{
			"name": "output_015",
			"rotation": [
				0.531300843,
				0.466604203,
				-0.466604054,
				0.531300962
			],
			"scale": [
				100.000015,
				100.000015,
				100
			],
			"mesh": 39
		},
		{
			"name": "output_012",
			"rotation": [
				0.531300843,
				0.466604203,
				-0.466604054,
				0.531300962
			],
			"scale": [
				100.000015,
				100.000015,
				100
			],
			"mesh": 40
		},
		{
			"name": "output_003",
			"rotation": [
				0.531300843,
				0.466604203,
				-0.466604054,
				0.531300962
			],
			"scale": [
				100.000015,
				100.000015,
				100
			],
			"mesh": 41
		},
		{
			"name": "test_006",
			"translation": [
				11.5003443,
				-0.0400000103,
				35.9171295
			],
			"rotation": [
				0.531300962,
				0.466604143,
				-0.466604054,
				0.531300962
			],
			"scale": [
				100,
				100,
				100
			],
			"mesh": 42
		}
	],
	"samplers": [
		{
			"minFilter": 9987,
			"magFilter": 9729
		}
	],
	"scenes": [
		{
			"name": "Leuven_Krakauplein",
			"nodes": [
				0
			]
		}
	],
	"textures": [
		{
			"name": "plein_kleiklinkers_BaseColor",
			"sampler": 0,
			"source": 0
		},
		{
			"name": "groenvakken_2_BaseColor",
			"sampler": 0,
			"source": 1
		},
		{
			"name": "shapefiles_new_001_BaseColor",
			"sampler": 0,
			"source": 0
		},
		{
			"name": "grasdallen_BaseColor",
			"sampler": 0,
			"source": 2
		}
	],
	"extensionsUsed": [
		"KHR_materials_specular"
	]
}